<svg xmlns="http://www.w3.org/2000/svg" xmlns:xlink="http://www.w3.org/1999/xlink" width="500" zoomAndPan="magnify" viewBox="0 0 375 374.999991" height="500" preserveAspectRatio="xMidYMid meet" version="1.0"><defs><g/><clipPath id="bb0479d685"><path d="M 187.5 114.019531 L 341.25 114.019531 L 341.25 267.769531 L 187.5 267.769531 Z M 187.5 114.019531 " clip-rule="nonzero"/></clipPath></defs><g clip-path="url(#bb0479d685)"><path fill="#ff7117" d="M 212.082031 154.953125 C 212.34375 155.828125 212.078125 156.683594 211.484375 156.867188 C 210.886719 157.050781 210.191406 156.492188 209.929688 155.617188 C 209.664062 154.742188 209.929688 153.886719 210.527344 153.703125 C 211.121094 153.519531 211.816406 154.078125 212.082031 154.953125 Z M 256.777344 141.445312 C 255.589844 146.476562 254.867188 151.355469 254.597656 156.089844 L 266.660156 156.730469 C 263.710938 152.289062 261.558594 147.117188 260.207031 141.214844 Z M 251.839844 185.015625 L 252.242188 188.382812 C 256.21875 189.878906 261.980469 190.246094 269.523438 189.488281 C 270.074219 187.21875 256.386719 187.722656 251.839844 185.015625 Z M 269.0625 208.945312 L 264.28125 202.847656 C 260.109375 202.667969 255.714844 201.644531 251.105469 199.78125 C 252.03125 204.019531 253.625 206.636719 255.886719 207.625 C 258.886719 208.648438 263.277344 209.089844 269.0625 208.945312 Z M 237.636719 211.253906 L 239.652344 221.773438 C 243.738281 219.847656 247.816406 219.261719 251.894531 220.015625 L 246.140625 208.945312 C 243.953125 209.414062 241.117188 210.183594 237.636719 211.253906 Z M 303.035156 210.867188 C 303.21875 213.351562 303.40625 216.28125 303.285156 217.398438 C 299.449219 214.792969 296.269531 214.082031 292.9375 215.136719 L 295.765625 218.558594 C 302.519531 219.875 305.398438 220.527344 315.511719 223.6875 C 315.1875 220.539062 314.675781 217.507812 313.125 214.980469 C 310.984375 213.933594 307.621094 212.5625 303.035156 210.867188 Z M 341.246094 190.890625 C 341.246094 233.347656 306.828125 267.765625 264.371094 267.765625 C 221.917969 267.765625 187.5 233.347656 187.5 190.890625 C 187.5 148.4375 221.917969 114.019531 264.371094 114.019531 C 306.828125 114.019531 341.246094 148.4375 341.246094 190.890625 Z M 227.015625 232.714844 C 220.226562 232.554688 212.613281 229.234375 206.582031 224.761719 C 205.648438 225.816406 204.746094 226.941406 203.882812 228.144531 C 209.808594 237.75 217.957031 245.832031 227.613281 251.683594 C 227.855469 245.757812 227.625 239.519531 227.015625 232.714844 Z M 211.796875 184.828125 C 210.722656 188.132812 216.191406 193.546875 216.773438 201.230469 L 213.855469 213.195312 C 216.488281 215.09375 220.59375 216.230469 223.597656 216.320312 L 227.078125 205.253906 C 227.296875 200.960938 223.960938 195.066406 219.519531 189.21875 C 220.367188 188.558594 221.203125 187.1875 222.039062 185.101562 C 223.644531 184.832031 224.457031 184.867188 225.964844 184.105469 L 228.664062 185.476562 C 231.140625 186.421875 232.570312 183.660156 230.429688 182.335938 L 225.652344 179.78125 L 219.925781 180.898438 L 215.714844 183.875 C 215.09375 184.183594 214.316406 183.015625 215.148438 182.285156 L 218.925781 179.25 C 221.140625 179.125 223.257812 178.738281 225.28125 178.09375 L 229.453125 179.554688 C 231.601562 180.363281 232.785156 177.097656 230.488281 176.25 L 224.667969 174.167969 L 218.523438 174.574219 L 213.921875 178.195312 C 213.363281 178.527344 212.726562 177.003906 213.527344 176.394531 C 215.714844 174.859375 217.527344 173.480469 218.121094 172.507812 C 220.304688 172.816406 222.332031 172.679688 224.195312 172.097656 L 228.96875 173.660156 C 231.019531 174.339844 232.378906 171.207031 229.902344 170.21875 L 223.523438 168.109375 L 216.894531 168.722656 L 213.5 171.644531 C 212.921875 172.097656 212.25 170.90625 213.039062 170.078125 L 216.171875 167.101562 L 221.101562 166.089844 L 226.121094 166.566406 C 227.90625 166.691406 229.003906 163.800781 226.335938 163.292969 C 224.261719 162.90625 221.214844 162.539062 219.640625 162.550781 C 218.175781 162.566406 215.066406 164.46875 214.03125 164.828125 C 212.164062 166.230469 210.484375 170.429688 210.015625 174.082031 C 208.746094 176.542969 208.992188 178.351562 209.929688 180.160156 C 209.746094 183.082031 210.601562 184.144531 211.796875 184.828125 Z M 216.441406 161.492188 L 213.28125 153.695312 C 210.882812 149.164062 207.460938 150.519531 208.730469 155.125 L 212.296875 163.679688 C 213.464844 162.917969 214.492188 161.960938 216.441406 161.492188 Z M 228.199219 218.699219 C 227.667969 219.339844 227.089844 219.839844 226.539062 220.289062 L 227.160156 228.617188 C 227.941406 227.964844 228.566406 227.019531 229.027344 225.761719 Z M 223.503906 189.121094 L 227.449219 197.476562 C 227.984375 198.6875 228.933594 199.054688 229.867188 198.75 L 225.6875 187.148438 C 224.839844 187.425781 224.113281 188.082031 223.503906 189.121094 Z M 231.105469 207.445312 C 231.039062 207.175781 230.96875 206.902344 230.898438 206.628906 C 230.40625 207.234375 229.882812 207.8125 229.316406 208.359375 C 229.921875 208.042969 230.515625 207.742188 231.105469 207.445312 Z M 231.535156 189.382812 C 230.5 188.5 229.542969 187.863281 228.664062 187.46875 L 231.792969 196.886719 C 232.640625 195.226562 232.882812 192.609375 231.535156 189.382812 Z M 211.375 216.066406 C 209.902344 217.050781 209.023438 218.570312 208.28125 221.550781 C 214.457031 225.753906 220.402344 228.632812 224.277344 229.179688 L 223.914062 220.421875 C 218.152344 218.976562 214.460938 218.058594 211.375 216.066406 Z M 232.054688 211.546875 C 231.429688 211.949219 230.796875 212.367188 230.148438 212.808594 C 230.121094 213.699219 230.023438 214.480469 229.871094 215.171875 L 231.132812 226.421875 C 233.394531 233.210938 234.503906 244.355469 233.382812 254.820312 C 233.65625 254.953125 233.929688 255.089844 234.203125 255.21875 C 236.371094 242.5625 235.679688 228.015625 232.054688 211.546875 Z M 325.277344 227.46875 C 321.878906 217.105469 315.449219 211.691406 300.234375 207.882812 C 301.289062 209.429688 301.519531 211.953125 301.328125 214.527344 C 298.109375 212.1875 295.515625 211.535156 290.195312 214.054688 L 293.046875 218.011719 C 288.550781 224.691406 286.070312 233.582031 287.128906 245.191406 C 287.242188 247.121094 283.761719 248.035156 283.027344 245.011719 C 282.183594 234.578125 279.96875 228.855469 274.164062 222.683594 C 266.117188 220.101562 262.921875 224.054688 260.507812 228.558594 C 255.078125 223.835938 251.296875 216.3125 247.125 205.789062 C 242.625 206.433594 239.023438 207.660156 235.441406 209.5625 C 239.453125 227.234375 240.246094 242.980469 237.730469 256.753906 C 238.46875 257.054688 239.214844 257.335938 239.964844 257.613281 L 240.644531 252.949219 C 254.675781 253.753906 267.570312 253.753906 279.332031 252.949219 C 279.390625 255.957031 279.203125 258.460938 278.773438 260.460938 C 283.164062 259.558594 287.40625 258.25 291.460938 256.574219 L 291.710938 251.4375 C 295.765625 251.234375 299.453125 250.964844 302.855469 250.605469 C 308.066406 247.242188 312.800781 243.214844 316.953125 238.648438 C 316.824219 234.25 316.585938 230.210938 316.421875 227.089844 C 316.4375 226.085938 318.003906 225.578125 318.246094 226.660156 C 318.90625 229.511719 319.457031 232.355469 319.898438 235.195312 C 321.855469 232.746094 323.652344 230.164062 325.277344 227.46875 Z M 290.847656 155.890625 C 290.816406 154.90625 289.859375 154.703125 289.738281 155.898438 L 287.730469 173.679688 C 287.441406 177.601562 292.277344 178.976562 293.046875 174.636719 L 295.855469 157.570312 C 295.964844 156.265625 295.363281 155.972656 295.195312 156.765625 C 294.578125 162.441406 290.300781 161.976562 290.847656 155.890625 Z M 293.035156 158.121094 C 293.464844 158.1875 293.925781 157.066406 294.0625 155.613281 C 294.203125 154.160156 293.972656 152.929688 293.542969 152.863281 C 293.117188 152.796875 292.65625 153.917969 292.515625 155.371094 C 292.375 156.824219 292.609375 158.054688 293.035156 158.121094 Z M 285.691406 212.144531 L 285.859375 227.304688 C 286.449219 224.011719 287.765625 220.617188 289.425781 217.992188 L 286.332031 213.324219 C 289.675781 210.460938 293.847656 209.425781 297.980469 209.800781 C 295.84375 204.445312 292.171875 200.800781 288.234375 198.675781 C 287.976562 201.898438 287.007812 207.382812 285.691406 212.144531 Z M 286.421875 185.621094 C 282.34375 202.074219 280.332031 212.578125 266.222656 212.445312 C 271.859375 213.941406 277.378906 213.148438 282.789062 210.0625 C 284.25 206.496094 285.726562 198.082031 286.421875 185.621094 Z M 282.785156 213.921875 C 279.222656 215.308594 276.5625 216.332031 271.992188 215.984375 C 275.3125 218.789062 278.378906 221.136719 283.59375 231.410156 Z M 255.085938 215.582031 C 256.082031 219.144531 257.828125 221.277344 260.113281 223.988281 C 261.714844 221.058594 264.902344 218.242188 271.09375 219.320312 L 263.265625 213.558594 C 260.175781 215.085938 257.210938 215.894531 255.085938 215.582031 Z M 271.191406 209.296875 C 273.246094 208.089844 275.949219 203.445312 279.308594 195.367188 C 268.292969 201.492188 258.230469 201.957031 248.488281 197.25 C 250.191406 203.359375 251.851562 207.296875 254.113281 208.578125 C 261.320312 210.199219 267.011719 210.4375 271.191406 209.296875 Z M 283.765625 141.191406 C 271.839844 135.78125 262.199219 136.085938 255.019531 140.59375 C 252.878906 145.933594 251.191406 151.71875 251.011719 157.414062 L 272.355469 158.433594 L 268.058594 161.417969 L 268.171875 165.800781 L 272.664062 163.929688 L 271.460938 184.183594 C 265.1875 184.945312 256.269531 183.792969 248.617188 182.957031 L 249.320312 189.101562 C 253.148438 190.523438 264.273438 191.675781 271.960938 190.417969 L 279.496094 186.050781 C 278.703125 164.355469 280.035156 149.222656 283.765625 141.191406 Z M 269.882812 181.347656 L 269.707031 178.242188 L 264.484375 168.253906 L 260.917969 168.039062 L 268.664062 181.257812 Z M 253.734375 167.609375 L 260.953125 180.703125 L 264.105469 180.929688 L 256.402344 167.769531 Z M 249.859375 167.375 C 249.308594 171.363281 249.460938 175.945312 250.308594 179.933594 L 258.429688 180.519531 L 251.363281 167.464844 Z M 248.554688 160.746094 L 248.300781 164.738281 L 265.863281 165.824219 L 265.863281 161.65625 Z M 326.957031 224.511719 C 332.34375 214.503906 335.40625 203.054688 335.40625 190.894531 C 335.40625 151.664062 303.601562 119.859375 264.371094 119.859375 C 225.140625 119.859375 193.339844 151.664062 193.339844 190.894531 C 193.339844 203.410156 196.582031 215.167969 202.265625 225.382812 C 203.050781 224.304688 203.835938 223.285156 204.617188 222.296875 C 205.867188 216.964844 208.410156 213.097656 211.054688 212.121094 L 214.082031 201.738281 C 212.84375 192.21875 209.8125 191.535156 209.714844 186.214844 C 208.980469 185.777344 207.011719 184.074219 208.007812 181.175781 C 206.605469 180.402344 206.285156 176.617188 207.875 173.785156 C 208.871094 168.746094 209.855469 167.347656 210.78125 165.808594 L 206.792969 155.257812 C 204.699219 148.949219 210.433594 146.664062 214.171875 148.542969 L 226.613281 131.683594 C 227.507812 130.542969 229.691406 132.460938 228.964844 133.597656 L 216.34375 150.601562 L 221.777344 160.820312 C 232.121094 161.066406 230.953125 166.921875 227.945312 167.878906 C 228.953125 168.074219 229.859375 168.386719 230.664062 168.816406 C 232.644531 161.933594 238.433594 164.429688 237.175781 167.699219 C 235.457031 171.222656 234.707031 174.6875 234.925781 178.089844 C 236.808594 188.15625 236.375 196.199219 233.621094 202.21875 C 233.945312 203.425781 234.253906 204.625 234.550781 205.8125 C 238.585938 204.015625 242.460938 202.75 246.75 202.09375 C 244.878906 196.398438 245.109375 190.925781 246.121094 186.335938 C 242.738281 166.273438 244.898438 150.851562 251.449219 140.234375 C 261.980469 129.96875 286.527344 132.609375 296.988281 150.8125 C 302.503906 162.761719 297.304688 180.5 289.324219 182.949219 L 288.484375 195.144531 C 292.8125 197.929688 296.027344 201.132812 298.308594 204.828125 C 316.183594 209.441406 323.234375 214.3125 326.957031 224.511719 Z M 326.957031 224.511719 " fill-opacity="1" fill-rule="nonzero"/></g><g fill="#ff7117" fill-opacity="1"><g transform="translate(44.953127, 261.256036)"><g><path d="M 10.28125 0 L 9.15625 -3.5625 L 4.203125 -3.5625 L 3.09375 0 L 0.421875 0 L 5.09375 -13.953125 L 8.375 -13.953125 L 13.015625 0 Z M 6.71875 -11.5625 L 6.625 -11.5625 L 4.84375 -5.8125 L 8.515625 -5.8125 Z M 6.71875 -11.5625 "/></g></g></g><g fill="#ff7117" fill-opacity="1"><g transform="translate(58.387825, 261.256036)"><g><path d="M 1.640625 0 L 1.640625 -13.953125 L 4.28125 -13.953125 L 4.28125 -2.34375 L 9.78125 -2.34375 L 9.78125 0 Z M 1.640625 0 "/></g></g></g><g fill="#ff7117" fill-opacity="1"><g transform="translate(68.803711, 261.256036)"><g><path d="M 10.28125 0 L 9.15625 -3.5625 L 4.203125 -3.5625 L 3.09375 0 L 0.421875 0 L 5.09375 -13.953125 L 8.375 -13.953125 L 13.015625 0 Z M 6.71875 -11.5625 L 6.625 -11.5625 L 4.84375 -5.8125 L 8.515625 -5.8125 Z M 6.71875 -11.5625 "/></g></g></g><g fill="#ff7117" fill-opacity="1"><g transform="translate(82.23841, 261.256036)"><g><path d="M 12.1875 -10.015625 L 12.09375 -10.015625 L 11.015625 -7.796875 L 8.15625 -2.515625 L 5.296875 -7.796875 L 4.21875 -10.015625 L 4.140625 -10.015625 L 4.140625 0 L 1.640625 0 L 1.640625 -13.953125 L 4.625 -13.953125 L 8.203125 -7.140625 L 8.28125 -7.140625 L 11.8125 -13.953125 L 14.6875 -13.953125 L 14.6875 0 L 12.1875 0 Z M 12.1875 -10.015625 "/></g></g></g><g fill="#ff7117" fill-opacity="1"><g transform="translate(98.551973, 261.256036)"><g><path d="M 7.125 0.234375 C 6.195312 0.234375 5.359375 0.0820312 4.609375 -0.21875 C 3.867188 -0.53125 3.234375 -0.988281 2.703125 -1.59375 C 2.179688 -2.207031 1.773438 -2.960938 1.484375 -3.859375 C 1.191406 -4.753906 1.046875 -5.796875 1.046875 -6.984375 C 1.046875 -8.148438 1.191406 -9.179688 1.484375 -10.078125 C 1.773438 -10.984375 2.179688 -11.742188 2.703125 -12.359375 C 3.234375 -12.972656 3.867188 -13.429688 4.609375 -13.734375 C 5.359375 -14.046875 6.195312 -14.203125 7.125 -14.203125 C 8.039062 -14.203125 8.867188 -14.046875 9.609375 -13.734375 C 10.359375 -13.429688 11 -12.972656 11.53125 -12.359375 C 12.070312 -11.742188 12.484375 -10.984375 12.765625 -10.078125 C 13.054688 -9.179688 13.203125 -8.148438 13.203125 -6.984375 C 13.203125 -5.796875 13.054688 -4.753906 12.765625 -3.859375 C 12.484375 -2.960938 12.070312 -2.207031 11.53125 -1.59375 C 11 -0.988281 10.359375 -0.53125 9.609375 -0.21875 C 8.867188 0.0820312 8.039062 0.234375 7.125 0.234375 Z M 7.125 -2.09375 C 8.125 -2.09375 8.921875 -2.425781 9.515625 -3.09375 C 10.109375 -3.757812 10.40625 -4.695312 10.40625 -5.90625 L 10.40625 -8.0625 C 10.40625 -9.257812 10.109375 -10.191406 9.515625 -10.859375 C 8.921875 -11.523438 8.125 -11.859375 7.125 -11.859375 C 6.125 -11.859375 5.328125 -11.523438 4.734375 -10.859375 C 4.140625 -10.191406 3.84375 -9.257812 3.84375 -8.0625 L 3.84375 -5.90625 C 3.84375 -4.695312 4.140625 -3.757812 4.734375 -3.09375 C 5.328125 -2.425781 6.125 -2.09375 7.125 -2.09375 Z M 7.125 -2.09375 "/></g></g></g><g fill="#ff7117" fill-opacity="1"><g transform="translate(112.786362, 261.256036)"><g/></g></g><g fill="#ffffff" fill-opacity="1"><g transform="translate(117.503903, 261.256036)"><g><path d="M 3.765625 0 L 0.515625 -13.953125 L 3.15625 -13.953125 L 4.546875 -7.265625 L 5.40625 -2.984375 L 5.453125 -2.984375 L 6.453125 -7.265625 L 8.0625 -13.953125 L 10.984375 -13.953125 L 12.578125 -7.265625 L 13.5625 -2.984375 L 13.625 -2.984375 L 14.5 -7.265625 L 15.921875 -13.953125 L 18.4375 -13.953125 L 15.09375 0 L 12.125 0 L 10.34375 -7.375 L 9.484375 -11.0625 L 9.4375 -11.0625 L 6.765625 0 Z M 3.765625 0 "/></g></g></g><g fill="#ffffff" fill-opacity="1"><g transform="translate(136.476421, 261.256036)"><g><path d="M 1.640625 0 L 1.640625 -13.953125 L 10.84375 -13.953125 L 10.84375 -11.625 L 4.28125 -11.625 L 4.28125 -8.234375 L 10.078125 -8.234375 L 10.078125 -5.90625 L 4.28125 -5.90625 L 4.28125 -2.34375 L 10.84375 -2.34375 L 10.84375 0 Z M 1.640625 0 "/></g></g></g><g fill="#ffffff" fill-opacity="1"><g transform="translate(148.471694, 261.256036)"><g><path d="M 1.640625 0 L 1.640625 -13.953125 L 4.28125 -13.953125 L 4.28125 -2.34375 L 9.78125 -2.34375 L 9.78125 0 Z M 1.640625 0 "/></g></g></g><g fill="#ffffff" fill-opacity="1"><g transform="translate(158.887579, 261.256036)"><g><path d="M 1.640625 -13.953125 L 6.71875 -13.953125 C 7.625 -13.953125 8.445312 -13.804688 9.1875 -13.515625 C 9.925781 -13.222656 10.554688 -12.785156 11.078125 -12.203125 C 11.609375 -11.628906 12.015625 -10.90625 12.296875 -10.03125 C 12.585938 -9.15625 12.734375 -8.140625 12.734375 -6.984375 C 12.734375 -5.816406 12.585938 -4.796875 12.296875 -3.921875 C 12.015625 -3.054688 11.609375 -2.332031 11.078125 -1.75 C 10.554688 -1.164062 9.925781 -0.726562 9.1875 -0.4375 C 8.445312 -0.144531 7.625 0 6.71875 0 L 1.640625 0 Z M 6.71875 -2.34375 C 7.707031 -2.34375 8.488281 -2.628906 9.0625 -3.203125 C 9.644531 -3.785156 9.9375 -4.675781 9.9375 -5.875 L 9.9375 -8.078125 C 9.9375 -9.273438 9.644531 -10.164062 9.0625 -10.75 C 8.488281 -11.332031 7.707031 -11.625 6.71875 -11.625 L 4.28125 -11.625 L 4.28125 -2.34375 Z M 6.71875 -2.34375 "/></g></g></g><g fill="#ffffff" fill-opacity="1"><g transform="translate(172.662145, 261.256036)"><g><path d="M 1.0625 0 L 1.0625 -2.125 L 2.90625 -2.125 L 2.90625 -11.84375 L 1.0625 -11.84375 L 1.0625 -13.953125 L 7.40625 -13.953125 L 7.40625 -11.84375 L 5.546875 -11.84375 L 5.546875 -2.125 L 7.40625 -2.125 L 7.40625 0 Z M 1.0625 0 "/></g></g></g><g fill="#ffffff" fill-opacity="1"><g transform="translate(181.118813, 261.256036)"><g><path d="M 5.640625 -7.15625 L 4.203125 -10.0625 L 4.140625 -10.0625 L 4.140625 0 L 1.640625 0 L 1.640625 -13.953125 L 4.546875 -13.953125 L 8.734375 -6.796875 L 10.1875 -3.90625 L 10.234375 -3.90625 L 10.234375 -13.953125 L 12.734375 -13.953125 L 12.734375 0 L 9.84375 0 Z M 5.640625 -7.15625 "/></g></g></g><g fill="#ffffff" fill-opacity="1"><g transform="translate(195.49314, 261.256036)"><g><path d="M 10.546875 -2.15625 L 10.453125 -2.15625 C 10.335938 -1.476562 9.960938 -0.910156 9.328125 -0.453125 C 8.691406 0.00390625 7.847656 0.234375 6.796875 0.234375 C 5.972656 0.234375 5.207031 0.0820312 4.5 -0.21875 C 3.800781 -0.53125 3.195312 -0.988281 2.6875 -1.59375 C 2.175781 -2.195312 1.773438 -2.945312 1.484375 -3.84375 C 1.191406 -4.738281 1.046875 -5.769531 1.046875 -6.9375 C 1.046875 -8.113281 1.191406 -9.148438 1.484375 -10.046875 C 1.785156 -10.953125 2.207031 -11.707031 2.75 -12.3125 C 3.300781 -12.925781 3.957031 -13.394531 4.71875 -13.71875 C 5.476562 -14.039062 6.328125 -14.203125 7.265625 -14.203125 C 8.515625 -14.203125 9.578125 -13.925781 10.453125 -13.375 C 11.335938 -12.832031 12.035156 -12.046875 12.546875 -11.015625 L 10.40625 -9.765625 C 10.144531 -10.359375 9.765625 -10.851562 9.265625 -11.25 C 8.765625 -11.65625 8.097656 -11.859375 7.265625 -11.859375 C 6.222656 -11.859375 5.390625 -11.539062 4.765625 -10.90625 C 4.148438 -10.269531 3.84375 -9.332031 3.84375 -8.09375 L 3.84375 -5.859375 C 3.84375 -4.628906 4.15625 -3.691406 4.78125 -3.046875 C 5.40625 -2.410156 6.242188 -2.09375 7.296875 -2.09375 C 7.710938 -2.09375 8.097656 -2.144531 8.453125 -2.25 C 8.816406 -2.351562 9.128906 -2.503906 9.390625 -2.703125 C 9.660156 -2.898438 9.875 -3.144531 10.03125 -3.4375 C 10.195312 -3.726562 10.28125 -4.078125 10.28125 -4.484375 L 10.28125 -5.375 L 7.546875 -5.375 L 7.546875 -7.59375 L 12.8125 -7.59375 L 12.8125 0 L 10.546875 0 Z M 10.546875 -2.15625 "/></g></g></g></svg>