<svg xmlns="http://www.w3.org/2000/svg" xmlns:xlink="http://www.w3.org/1999/xlink" width="1024" zoomAndPan="magnify" viewBox="0 0 768 576" height="768" preserveAspectRatio="xMidYMid meet" version="1.0"><defs><g/><clipPath id="6839fbc176"><path d="M 424.578125 216.300781 L 479.328125 216.300781 L 479.328125 272.550781 L 424.578125 272.550781 Z M 424.578125 216.300781 " clip-rule="nonzero"/></clipPath><clipPath id="3487092ef3"><path d="M 444 239 L 479 239 L 479 272.550781 L 444 272.550781 Z M 444 239 " clip-rule="nonzero"/></clipPath></defs><rect x="-76.8" width="921.6" fill="#ffffff" y="-57.6" height="691.2" fill-opacity="1"/><rect x="-76.8" width="921.6" fill="#ffffff" y="-57.6" height="691.2" fill-opacity="1"/><rect x="-76.8" width="921.6" fill="#10172a" y="-57.6" height="691.2" fill-opacity="1"/><g fill="#e11887" fill-opacity="1"><g transform="translate(271.429089, 328.027038)"><g><path d="M 40.019531 -54.054688 C 35.378906 -57.882812 29.347656 -58.695312 23.664062 -59.738281 C 17.746094 -59.96875 11.949219 -59.390625 6.148438 -58.578125 C 4.640625 -56.953125 5.21875 -54.75 5.21875 -52.777344 C 16.820312 -52.660156 28.417969 -53.472656 40.019531 -54.054688 Z M 45.703125 -46.515625 C 44.65625 -48.832031 43.265625 -50.921875 41.640625 -52.777344 C 29.347656 -52.082031 17.285156 -51.386719 5.105469 -51.386719 C 4.988281 -49.414062 4.871094 -47.558594 4.753906 -45.703125 C 18.328125 -45.007812 32.128906 -45.585938 45.703125 -46.515625 Z M 46.28125 -45.121094 C 38.511719 -44.890625 30.738281 -44.195312 22.96875 -43.960938 C 16.820312 -43.960938 10.671875 -44.195312 4.523438 -44.308594 C 4.292969 -41.640625 4.058594 -38.859375 3.828125 -36.074219 C 18.675781 -36.304688 33.523438 -36.65625 48.253906 -37.351562 C 47.90625 -40.019531 47.210938 -42.570312 46.28125 -45.121094 Z M 48.371094 -35.84375 C 33.523438 -35.261719 18.558594 -34.914062 3.597656 -34.683594 C 3.480469 -32.363281 3.363281 -30.042969 3.132812 -27.722656 C 18.210938 -27.953125 33.289062 -28.882812 48.371094 -29.695312 C 48.371094 -31.78125 48.371094 -33.871094 48.371094 -35.84375 Z M 48.253906 -28.1875 C 33.175781 -27.492188 18.210938 -26.5625 3.132812 -26.332031 C 2.898438 -24.242188 2.898438 -21.921875 2.667969 -19.835938 C 17.746094 -20.761719 32.710938 -22.15625 47.675781 -23.199219 C 47.90625 -24.9375 48.136719 -26.5625 48.253906 -28.1875 Z M 47.441406 -21.691406 C 32.480469 -20.761719 17.632812 -19.371094 2.667969 -18.441406 C 2.667969 -16.355469 2.667969 -14.265625 2.667969 -12.179688 C 16.703125 -12.875 30.738281 -13.804688 44.890625 -14.730469 C 46.050781 -16.933594 46.746094 -19.371094 47.441406 -21.691406 Z M 21.460938 -1.507812 C 24.476562 -1.277344 27.605469 -1.738281 30.621094 -2.203125 C 36.769531 -3.132812 41.179688 -8.121094 44.195312 -13.222656 C 30.390625 -12.410156 16.585938 -11.367188 2.667969 -10.789062 C 2.4375 -8.121094 1.625 -4.988281 3.945312 -3.015625 C 9.742188 -2.203125 15.660156 -1.972656 21.460938 -1.507812 Z M 21.460938 -1.507812 "/></g></g></g><g fill="#e11887" fill-opacity="1"><g transform="translate(322.349631, 328.027038)"><g><path d="M 41.410156 -9.511719 C 39.089844 -11.949219 36.539062 -14.5 34.101562 -17.050781 C 32.246094 -15.425781 30.621094 -13.570312 28.417969 -12.527344 C 26.097656 -11.484375 23.429688 -11.949219 20.996094 -12.527344 C 17.050781 -13.804688 12.410156 -16.007812 12.0625 -20.761719 C 18.09375 -20.300781 24.242188 -20.183594 30.160156 -20.183594 C 33.753906 -20.066406 37.464844 -22.039062 38.859375 -25.285156 C 41.0625 -29.8125 39.785156 -35.148438 38.164062 -39.671875 C 35.957031 -45.007812 30.273438 -47.90625 24.824219 -48.601562 C 19.488281 -49.53125 13.804688 -47.90625 9.742188 -44.425781 C 4.988281 -40.480469 2.203125 -34.449219 1.390625 -28.417969 C 0.8125 -21.921875 0.8125 -14.5 5.453125 -9.164062 C 10.207031 -4.175781 17.167969 -1.507812 23.894531 -0.929688 C 30.855469 -0.117188 37.582031 -3.945312 41.410156 -9.511719 Z M 17.515625 -36.539062 C 20.53125 -38.625 24.707031 -38.046875 27.492188 -36.074219 C 28.535156 -34.683594 28.652344 -32.828125 29.113281 -31.203125 C 23.894531 -31.203125 18.675781 -31.320312 13.570312 -31.667969 C 14.617188 -33.523438 15.773438 -35.378906 17.515625 -36.539062 Z M 17.515625 -36.539062 "/></g></g></g><g fill="#e11887" fill-opacity="1"><g transform="translate(365.614693, 328.027038)"><g><path d="M 22.15625 -30.042969 C 25.402344 -30.96875 28.882812 -30.96875 32.363281 -30.738281 C 32.828125 -33.058594 32.710938 -35.496094 31.433594 -37.582031 C 28.652344 -43.265625 21.921875 -46.28125 15.773438 -45.703125 C 10.554688 -45.121094 6.378906 -40.945312 4.523438 -36.191406 C 1.855469 -29.578125 4.988281 -21.460938 11.25 -18.09375 C 14.035156 -16.585938 17.285156 -16.007812 20.066406 -14.5 C 21.226562 -14.035156 22.15625 -12.296875 20.996094 -11.25 C 19.488281 -9.164062 16.355469 -8.003906 14.035156 -9.394531 C 12.644531 -11.484375 11.714844 -13.804688 10.441406 -16.125 C 7.308594 -14.617188 4.058594 -13.222656 0.929688 -11.949219 C 2.667969 -7.191406 4.40625 -1.625 9.394531 0.8125 C 17.285156 4.753906 27.722656 0.695312 31.433594 -7.074219 C 33.988281 -12.644531 32.128906 -19.835938 27.027344 -23.199219 C 23.777344 -25.75 19.371094 -26.097656 15.890625 -28.1875 C 10.554688 -34.101562 22.734375 -37.8125 22.15625 -30.042969 Z M 27.257812 -34.683594 C 27.953125 -34.566406 28.304688 -33.40625 27.492188 -33.289062 C 26.5625 -33.058594 25.75 -32.828125 24.824219 -32.59375 C 24.011719 -32.363281 23.664062 -33.753906 24.476562 -33.871094 C 25.402344 -34.101562 26.445312 -34.683594 27.257812 -34.683594 Z M 23.546875 -37.003906 C 24.242188 -37.464844 25.171875 -37.929688 25.867188 -38.394531 C 26.792969 -38.859375 27.257812 -37.699219 26.5625 -37.234375 C 25.75 -36.769531 24.9375 -36.304688 24.242188 -35.84375 C 23.316406 -35.378906 22.851562 -36.539062 23.546875 -37.003906 Z M 20.53125 -39.324219 C 20.878906 -40.019531 21.109375 -40.714844 21.691406 -41.410156 C 22.269531 -41.988281 23.199219 -41.640625 22.734375 -40.714844 C 22.386719 -40.019531 22.039062 -39.324219 21.691406 -38.625 C 21.226562 -37.929688 20.183594 -38.625 20.53125 -39.324219 Z M 18.328125 -42.800781 C 18.675781 -42.800781 19.023438 -42.570312 19.023438 -42.222656 C 19.023438 -41.410156 18.90625 -40.367188 18.90625 -39.4375 C 18.90625 -38.625 17.746094 -38.625 17.746094 -39.4375 C 17.746094 -40.480469 17.285156 -42.800781 18.328125 -42.800781 Z M 5.914062 -8.351562 C 5.683594 -8.121094 5.105469 -8.234375 4.988281 -8.582031 C 4.753906 -8.816406 4.871094 -9.164062 5.21875 -9.394531 C 6.378906 -9.976562 7.539062 -10.554688 8.582031 -11.25 C 8.929688 -11.367188 9.394531 -11.25 9.511719 -11.019531 C 9.628906 -10.671875 9.628906 -10.324219 9.28125 -10.089844 C 8.121094 -9.394531 7.074219 -8.816406 5.914062 -8.351562 Z M 8.46875 -3.945312 C 8.234375 -3.710938 7.773438 -3.710938 7.539062 -3.945312 C 7.191406 -4.292969 7.308594 -4.523438 7.539062 -4.871094 C 8.46875 -6.03125 9.511719 -7.308594 10.554688 -8.46875 C 10.789062 -8.816406 11.25 -8.699219 11.484375 -8.46875 C 11.714844 -8.121094 11.714844 -7.773438 11.484375 -7.539062 C 10.441406 -6.378906 9.394531 -5.21875 8.46875 -3.945312 Z M 13.804688 -5.914062 C 13.457031 -4.871094 13.222656 -3.945312 12.875 -2.898438 C 12.644531 -2.667969 12.410156 -2.4375 11.949219 -2.4375 C 11.714844 -2.667969 11.484375 -2.898438 11.484375 -3.246094 C 11.949219 -4.292969 12.179688 -5.335938 12.527344 -6.265625 C 12.644531 -6.496094 12.875 -6.613281 13.109375 -6.613281 C 13.6875 -6.613281 13.804688 -6.148438 13.804688 -5.914062 Z M 7.539062 -34.683594 C 8.929688 -34.449219 10.324219 -34.21875 11.597656 -34.101562 C 12.410156 -34.101562 12.179688 -32.828125 11.597656 -32.828125 C 10.324219 -32.941406 8.929688 -33.058594 7.539062 -33.289062 C 6.84375 -33.523438 6.613281 -34.683594 7.539062 -34.683594 Z M 7.886719 -29.347656 C 8.816406 -29.578125 9.628906 -29.8125 10.671875 -30.160156 C 11.019531 -30.273438 11.25 -30.042969 11.484375 -29.695312 C 11.484375 -29.347656 11.25 -29 11.019531 -28.882812 C 10.089844 -28.535156 9.164062 -28.1875 8.234375 -27.953125 C 7.308594 -27.722656 7.074219 -29.113281 7.886719 -29.347656 Z M 12.875 -24.589844 C 11.949219 -24.011719 11.25 -23.429688 10.441406 -22.851562 C 9.628906 -22.386719 9.046875 -23.546875 9.742188 -24.011719 C 10.554688 -24.589844 11.25 -25.171875 12.179688 -25.75 C 12.875 -26.097656 13.570312 -24.824219 12.875 -24.589844 Z M 12.179688 -35.609375 C 11.484375 -36.304688 10.554688 -37.003906 9.859375 -37.582031 C 9.511719 -37.929688 9.628906 -38.394531 9.859375 -38.625 C 10.089844 -38.859375 10.441406 -38.625 10.789062 -38.625 C 11.484375 -37.929688 12.410156 -37.351562 13.109375 -36.539062 C 13.6875 -35.957031 12.757812 -35.148438 12.179688 -35.609375 Z M 16.820312 -1.625 C 16.820312 -1.277344 16.472656 -1.042969 16.125 -1.042969 C 15.890625 -1.042969 15.542969 -1.277344 15.542969 -1.625 C 15.660156 -2.785156 15.773438 -3.945312 15.773438 -5.105469 C 15.773438 -5.453125 16.125 -5.800781 16.472656 -5.800781 C 16.820312 -5.800781 17.167969 -5.453125 17.050781 -5.105469 C 17.050781 -3.945312 16.933594 -2.785156 16.820312 -1.625 Z M 26.332031 -5.453125 C 25.984375 -5.453125 25.867188 -5.566406 25.75 -5.683594 C 25.054688 -6.148438 24.242188 -6.613281 23.546875 -7.308594 C 23.316406 -7.539062 23.199219 -7.773438 23.316406 -8.121094 C 23.546875 -8.351562 24.011719 -8.699219 24.242188 -8.351562 C 25.054688 -7.773438 25.867188 -7.074219 26.792969 -6.496094 C 27.144531 -6.148438 26.792969 -5.453125 26.332031 -5.453125 Z M 28.417969 -10.441406 C 27.375 -10.441406 26.332031 -10.554688 25.402344 -10.671875 C 24.9375 -10.789062 24.476562 -11.25 24.9375 -11.714844 C 25.054688 -11.949219 27.492188 -11.832031 28.417969 -11.714844 C 29.347656 -11.714844 29.113281 -10.324219 28.417969 -10.441406 Z M 27.953125 -17.285156 C 28.1875 -17.398438 28.652344 -17.285156 28.882812 -17.050781 C 29 -16.703125 28.882812 -16.238281 28.652344 -16.125 C 27.492188 -15.542969 26.332031 -14.964844 25.171875 -14.5 C 24.9375 -14.265625 24.476562 -14.265625 24.242188 -14.730469 C 24.128906 -14.964844 24.242188 -15.425781 24.476562 -15.542969 C 25.636719 -16.125 26.792969 -16.703125 27.953125 -17.285156 Z M 22.617188 -18.90625 C 23.316406 -19.601562 24.011719 -20.300781 24.707031 -20.996094 C 24.9375 -21.226562 25.402344 -21.226562 25.636719 -20.996094 C 25.867188 -20.648438 25.867188 -20.300781 25.636719 -20.066406 C 25.054688 -19.371094 24.242188 -18.558594 23.546875 -18.09375 C 22.96875 -17.515625 22.15625 -18.441406 22.617188 -18.90625 Z M 21.691406 -1.507812 C 21.460938 -1.277344 20.996094 -1.160156 20.761719 -1.507812 C 20.300781 -3.363281 20.183594 -4.640625 19.949219 -5.914062 C 19.835938 -6.378906 20.066406 -6.726562 20.53125 -6.726562 C 20.761719 -6.726562 21.109375 -6.613281 21.226562 -6.265625 C 21.460938 -4.753906 21.691406 -3.363281 21.921875 -1.972656 C 21.921875 -1.738281 21.691406 -1.625 21.691406 -1.507812 Z M 18.558594 -20.066406 C 19.140625 -20.996094 19.835938 -22.15625 20.414062 -23.199219 C 20.761719 -23.894531 21.921875 -23.316406 21.460938 -22.617188 C 20.878906 -21.460938 20.300781 -20.414062 19.71875 -19.371094 C 19.140625 -18.675781 18.09375 -19.371094 18.558594 -20.066406 Z M 15.425781 -24.359375 C 15.773438 -24.9375 17.050781 -24.707031 16.820312 -24.011719 C 16.355469 -23.082031 16.007812 -22.15625 15.660156 -21.226562 C 15.3125 -20.414062 14.035156 -20.878906 14.382812 -21.691406 C 14.730469 -22.503906 15.195312 -23.429688 15.425781 -24.359375 Z M 14.265625 -39.089844 C 13.917969 -39.554688 13.570312 -40.132812 13.339844 -40.480469 C 12.875 -41.410156 14.035156 -41.875 14.5 -41.179688 C 14.617188 -40.945312 16.238281 -38.859375 15.773438 -38.394531 C 15.078125 -37.699219 14.5 -38.742188 14.265625 -39.089844 Z M 14.265625 -39.089844 "/></g></g></g><g fill="#e11887" fill-opacity="1"><g transform="translate(399.368399, 328.027038)"><g><path d="M 1.738281 -61.128906 C 1.625 -56.835938 1.160156 -52.546875 2.089844 -48.371094 C 5.683594 -48.484375 9.046875 -48.832031 12.527344 -49.066406 C 12.527344 -53.125 12.644531 -57.183594 12.644531 -61.246094 C 8.929688 -61.246094 5.335938 -61.246094 1.738281 -61.128906 Z M 1.855469 -41.757812 C 1.972656 -39.902344 1.972656 -37.929688 1.972656 -36.074219 C 5.683594 -36.539062 9.394531 -37.117188 13.109375 -37.582031 C 12.992188 -39.324219 12.875 -40.945312 12.757812 -42.6875 C 9.164062 -42.453125 5.453125 -42.222656 1.855469 -41.757812 Z M 1.972656 -34.683594 C 1.972656 -32.128906 1.972656 -29.8125 1.972656 -27.257812 C 5.683594 -27.722656 9.394531 -28.070312 13.109375 -28.304688 C 13.109375 -30.96875 13.109375 -33.523438 13.109375 -36.074219 C 9.394531 -35.609375 5.683594 -35.148438 1.972656 -34.683594 Z M 1.972656 -25.867188 C 1.972656 -22.039062 1.972656 -18.210938 2.089844 -14.265625 C 5.800781 -14.730469 9.394531 -14.964844 13.109375 -15.425781 C 13.109375 -19.253906 13.109375 -23.082031 13.109375 -26.910156 C 9.394531 -26.5625 5.683594 -26.332031 1.972656 -25.867188 Z M 3.710938 -0.347656 C 7.074219 -1.042969 10.441406 -1.738281 13.804688 -2.4375 C 13.222656 -6.265625 13.339844 -10.089844 13.109375 -13.917969 C 9.394531 -13.570312 5.800781 -13.222656 2.203125 -12.875 C 2.4375 -8.699219 1.625 -4.175781 3.710938 -0.347656 Z M 3.710938 -0.347656 "/></g></g></g><g fill="#e11887" fill-opacity="1"><g transform="translate(414.911341, 328.027038)"><g><path d="M 16.820312 14.382812 C 14.964844 12.875 15.425781 9.976562 15.078125 7.773438 C 11.484375 8.234375 7.773438 8.582031 4.175781 8.929688 C 4.058594 14.5 5.800781 20.996094 11.019531 24.011719 C 16.125 26.5625 22.039062 25.984375 27.257812 24.242188 C 33.058594 22.15625 37.351562 16.820312 38.859375 10.789062 C 41.179688 2.089844 40.367188 -7.074219 39.671875 -16.007812 C 39.324219 -21.226562 39.671875 -26.792969 38.277344 -31.898438 C 36.769531 -34.21875 35.03125 -36.304688 33.058594 -38.046875 C 28.882812 -41.292969 23.082031 -42.453125 17.980469 -40.945312 C 7.308594 -38.742188 -0.347656 -27.492188 1.390625 -16.820312 C 2.320312 -8.816406 9.742188 -3.015625 17.285156 -1.972656 C 21.460938 -1.160156 25.636719 -2.203125 29.347656 -3.945312 C 29.230469 0.929688 29.347656 6.148438 27.144531 10.554688 C 25.285156 14.265625 20.414062 15.195312 16.820312 14.382812 Z M 25.054688 -19.601562 C 24.9375 -19.488281 24.707031 -19.371094 24.476562 -19.488281 C 24.011719 -19.601562 23.777344 -19.835938 23.546875 -20.066406 C 22.96875 -20.761719 22.15625 -21.460938 21.460938 -21.921875 C 20.878906 -21.226562 20.300781 -20.648438 19.835938 -19.949219 C 19.488281 -19.601562 19.023438 -19.140625 18.675781 -19.371094 C 18.441406 -19.601562 18.328125 -19.835938 18.441406 -20.183594 C 18.441406 -20.414062 18.675781 -20.648438 18.90625 -20.878906 C 19.371094 -21.460938 19.835938 -22.15625 20.414062 -22.851562 C 19.488281 -23.546875 18.558594 -24.476562 17.515625 -25.285156 C 17.285156 -25.519531 16.820312 -25.867188 17.050781 -26.332031 C 17.167969 -26.5625 17.515625 -26.679688 17.863281 -26.5625 C 18.09375 -26.5625 18.328125 -26.332031 18.558594 -26.097656 C 19.371094 -25.402344 20.300781 -24.707031 21.226562 -23.777344 C 21.921875 -24.707031 22.503906 -25.519531 23.082031 -26.332031 C 23.316406 -26.5625 23.429688 -26.679688 23.664062 -26.792969 C 23.894531 -27.027344 24.242188 -27.027344 24.476562 -26.792969 C 24.707031 -26.5625 24.476562 -25.867188 24.242188 -25.519531 C 23.546875 -24.707031 22.96875 -23.777344 22.269531 -23.082031 C 23.082031 -22.386719 23.894531 -21.691406 24.707031 -20.878906 C 25.054688 -20.648438 25.285156 -19.949219 25.054688 -19.601562 Z M 25.054688 -19.601562 "/></g></g></g><g fill="#e11887" fill-opacity="1"><g transform="translate(456.436524, 328.027038)"><g><path d="M 37.351562 0.347656 C 38.859375 -8.582031 39.089844 -17.746094 37.929688 -26.792969 C 37.117188 -33.289062 33.523438 -39.902344 27.375 -42.6875 C 22.386719 -45.121094 16.585938 -44.195312 11.25 -44.308594 C 11.019531 -44.773438 10.671875 -45.46875 10.441406 -45.933594 C 10.324219 -45.585938 3.828125 -43.730469 0.8125 -43.5 C 1.042969 -28.652344 2.203125 -13.804688 3.132812 1.042969 C 6.496094 1.277344 9.976562 1.277344 13.457031 1.277344 C 13.6875 -1.042969 13.804688 -3.480469 13.6875 -5.800781 C 13.109375 -14.964844 12.527344 -24.011719 12.179688 -33.058594 C 15.3125 -33.289062 18.558594 -33.753906 21.691406 -33.058594 C 24.589844 -32.246094 26.097656 -29.347656 26.679688 -26.5625 C 28.417969 -18.09375 27.257812 -9.394531 26.792969 -0.8125 C 30.273438 -0.347656 33.753906 0.117188 37.351562 0.347656 Z M 37.351562 0.347656 "/></g></g></g><g clip-path="url(#6839fbc176)"><path fill="#00a1ff" d="M 444.8125 255.796875 L 437.671875 255.796875 C 430.445312 255.796875 424.578125 249.898438 424.578125 242.632812 C 424.578125 235.367188 430.445312 229.46875 437.671875 229.46875 L 438.863281 229.46875 C 438.863281 222.203125 444.726562 216.300781 451.953125 216.300781 C 459.179688 216.300781 465.046875 222.203125 465.046875 229.46875 L 466.234375 229.46875 C 473.460938 229.46875 479.328125 235.367188 479.328125 242.632812 C 479.328125 245.351562 478.507812 247.875 477.101562 249.972656 C 477.773438 251.789062 478.136719 253.75 478.136719 255.796875 C 478.136719 265.046875 470.671875 272.550781 461.476562 272.550781 C 452.277344 272.550781 444.8125 265.046875 444.8125 255.796875 Z M 444.8125 255.796875 " fill-opacity="1" fill-rule="evenodd"/></g><g clip-path="url(#3487092ef3)"><path fill="#ffffff" d="M 461.476562 239.042969 C 452.277344 239.042969 444.8125 246.550781 444.8125 255.796875 C 444.8125 265.046875 452.277344 272.550781 461.476562 272.550781 C 470.671875 272.550781 478.136719 265.046875 478.136719 255.796875 C 478.136719 246.550781 470.671875 239.042969 461.476562 239.042969 Z M 455.957031 264.570312 C 454.660156 265.0625 453.351562 265.730469 452.042969 266.578125 C 454.0625 268.363281 456.582031 269.589844 459.367188 270.003906 C 457.964844 268.1875 456.828125 266.375 455.957031 264.570312 Z M 467.078125 264.585938 C 466.207031 266.394531 465.058594 268.199219 463.628906 269.996094 C 466.394531 269.574219 468.902344 268.355469 470.910156 266.574219 C 469.636719 265.746094 468.359375 265.082031 467.078125 264.585938 Z M 464.769531 263.882812 C 462.617188 263.394531 460.449219 263.386719 458.269531 263.875 C 459.097656 265.527344 460.175781 267.183594 461.492188 268.847656 C 462.84375 267.195312 463.9375 265.539062 464.769531 263.882812 Z M 453.855469 256.992188 L 447.242188 256.992188 C 447.484375 259.945312 448.617188 262.644531 450.367188 264.820312 C 451.921875 263.773438 453.476562 262.949219 455.019531 262.34375 C 454.375 260.554688 453.984375 258.769531 453.855469 256.992188 Z M 475.707031 256.992188 L 469.113281 256.992188 C 469.007812 258.785156 468.640625 260.574219 468.007812 262.359375 C 469.539062 262.96875 471.066406 263.789062 472.585938 264.820312 C 474.332031 262.644531 475.464844 259.945312 475.707031 256.992188 Z M 466.726562 256.992188 L 456.242188 256.992188 C 456.371094 258.53125 456.71875 260.070312 457.285156 261.613281 C 460.125 260.886719 462.945312 260.894531 465.742188 261.617188 C 466.296875 260.082031 466.625 258.539062 466.726562 256.992188 Z M 450.367188 246.777344 C 448.617188 248.949219 447.484375 251.648438 447.242188 254.601562 L 453.835938 254.601562 C 453.941406 252.808594 454.308594 251.019531 454.941406 249.234375 C 453.410156 248.625 451.882812 247.804688 450.367188 246.777344 Z M 457.207031 249.976562 C 456.652344 251.515625 456.324219 253.054688 456.222656 254.601562 L 466.707031 254.601562 C 466.578125 253.0625 466.230469 251.527344 465.664062 249.984375 C 462.824219 250.710938 460.007812 250.699219 457.207031 249.976562 Z M 472.582031 246.773438 C 471.027344 247.820312 469.472656 248.644531 467.929688 249.25 C 468.578125 251.039062 468.964844 252.824219 469.09375 254.601562 L 475.707031 254.601562 C 475.464844 251.648438 474.332031 248.949219 472.582031 246.773438 Z M 461.457031 242.746094 C 460.105469 244.398438 459.011719 246.054688 458.179688 247.710938 C 460.332031 248.199219 462.5 248.207031 464.679688 247.722656 C 463.851562 246.070312 462.777344 244.410156 461.457031 242.746094 Z M 463.582031 241.589844 C 464.984375 243.40625 466.121094 245.21875 466.992188 247.027344 C 468.292969 246.53125 469.597656 245.863281 470.90625 245.015625 C 468.886719 243.230469 466.367188 242.007812 463.582031 241.589844 Z M 459.320312 241.597656 C 456.554688 242.019531 454.046875 243.242188 452.039062 245.019531 C 453.3125 245.847656 454.589844 246.511719 455.871094 247.007812 C 456.742188 245.199219 457.890625 243.394531 459.320312 241.597656 Z M 459.320312 241.597656 " fill-opacity="1" fill-rule="evenodd"/></g><g fill="#ffffff" fill-opacity="1"><g transform="translate(280.803358, 262.006324)"><g><path d="M 15.25 0 L 1 -43.609375 L 9.4375 -43.609375 L 16.125 -22.375 L 20 -7.875 L 20.1875 -7.875 L 24 -22.375 L 30.6875 -43.609375 L 38.859375 -43.609375 L 24.625 0 Z M 15.25 0 "/></g></g></g><g fill="#ffffff" fill-opacity="1"><g transform="translate(319.418039, 262.006324)"><g><path d="M 3.3125 0 L 3.3125 -6.625 L 9.0625 -6.625 L 9.0625 -36.984375 L 3.3125 -36.984375 L 3.3125 -43.609375 L 23.125 -43.609375 L 23.125 -36.984375 L 17.3125 -36.984375 L 17.3125 -6.625 L 23.125 -6.625 L 23.125 0 Z M 3.3125 0 "/></g></g></g><g fill="#ffffff" fill-opacity="1"><g transform="translate(344.598814, 262.006324)"><g><path d="M 15.25 0 L 1 -43.609375 L 9.4375 -43.609375 L 16.125 -22.375 L 20 -7.875 L 20.1875 -7.875 L 24 -22.375 L 30.6875 -43.609375 L 38.859375 -43.609375 L 24.625 0 Z M 15.25 0 "/></g></g></g><g fill="#ffffff" fill-opacity="1"><g transform="translate(383.213495, 262.006324)"><g><path d="M 32.109375 0 L 28.625 -11.125 L 13.125 -11.125 L 9.6875 0 L 1.3125 0 L 15.9375 -43.609375 L 26.1875 -43.609375 L 40.671875 0 Z M 21 -36.109375 L 20.6875 -36.109375 L 15.125 -18.1875 L 26.625 -18.1875 Z M 21 -36.109375 "/></g></g></g></svg>