<svg xmlns="http://www.w3.org/2000/svg" xmlns:xlink="http://www.w3.org/1999/xlink" width="1024" zoomAndPan="magnify" viewBox="0 0 768 576" height="768" preserveAspectRatio="xMidYMid meet" version="1.0"><defs><g/><clipPath id="6186ca245a"><path d="M 466.476562 226.070312 L 528.726562 226.070312 L 528.726562 289.070312 L 466.476562 289.070312 Z M 466.476562 226.070312 " clip-rule="nonzero"/></clipPath><clipPath id="73273067d3"><path d="M 489 251 L 528 251 L 528 289.070312 L 489 289.070312 Z M 489 251 " clip-rule="nonzero"/></clipPath></defs><g fill="#e11887" fill-opacity="1"><g transform="translate(302.42577, 344.872902)"><g><path d="M 40.019531 -54.054688 C 35.378906 -57.882812 29.347656 -58.695312 23.664062 -59.738281 C 17.746094 -59.96875 11.949219 -59.390625 6.148438 -58.578125 C 4.640625 -56.953125 5.21875 -54.75 5.21875 -52.777344 C 16.820312 -52.660156 28.417969 -53.472656 40.019531 -54.054688 Z M 45.703125 -46.515625 C 44.65625 -48.832031 43.265625 -50.921875 41.640625 -52.777344 C 29.347656 -52.082031 17.285156 -51.386719 5.105469 -51.386719 C 4.988281 -49.414062 4.871094 -47.558594 4.753906 -45.703125 C 18.328125 -45.007812 32.128906 -45.585938 45.703125 -46.515625 Z M 46.28125 -45.121094 C 38.511719 -44.890625 30.738281 -44.195312 22.96875 -43.960938 C 16.820312 -43.960938 10.671875 -44.195312 4.523438 -44.308594 C 4.292969 -41.640625 4.058594 -38.859375 3.828125 -36.074219 C 18.675781 -36.304688 33.523438 -36.65625 48.253906 -37.351562 C 47.90625 -40.019531 47.210938 -42.570312 46.28125 -45.121094 Z M 48.371094 -35.84375 C 33.523438 -35.261719 18.558594 -34.914062 3.597656 -34.683594 C 3.480469 -32.363281 3.363281 -30.042969 3.132812 -27.722656 C 18.210938 -27.953125 33.289062 -28.882812 48.371094 -29.695312 C 48.371094 -31.78125 48.371094 -33.871094 48.371094 -35.84375 Z M 48.253906 -28.1875 C 33.175781 -27.492188 18.210938 -26.5625 3.132812 -26.332031 C 2.898438 -24.242188 2.898438 -21.921875 2.667969 -19.835938 C 17.746094 -20.761719 32.710938 -22.15625 47.675781 -23.199219 C 47.90625 -24.9375 48.136719 -26.5625 48.253906 -28.1875 Z M 47.441406 -21.691406 C 32.480469 -20.761719 17.632812 -19.371094 2.667969 -18.441406 C 2.667969 -16.355469 2.667969 -14.265625 2.667969 -12.179688 C 16.703125 -12.875 30.738281 -13.804688 44.890625 -14.730469 C 46.050781 -16.933594 46.746094 -19.371094 47.441406 -21.691406 Z M 21.460938 -1.507812 C 24.476562 -1.277344 27.605469 -1.738281 30.621094 -2.203125 C 36.769531 -3.132812 41.179688 -8.121094 44.195312 -13.222656 C 30.390625 -12.410156 16.585938 -11.367188 2.667969 -10.789062 C 2.4375 -8.121094 1.625 -4.988281 3.945312 -3.015625 C 9.742188 -2.203125 15.660156 -1.972656 21.460938 -1.507812 Z M 21.460938 -1.507812 "/></g></g></g><g fill="#e11887" fill-opacity="1"><g transform="translate(353.346311, 344.872902)"><g><path d="M 41.410156 -9.511719 C 39.089844 -11.949219 36.539062 -14.5 34.101562 -17.050781 C 32.246094 -15.425781 30.621094 -13.570312 28.417969 -12.527344 C 26.097656 -11.484375 23.429688 -11.949219 20.996094 -12.527344 C 17.050781 -13.804688 12.410156 -16.007812 12.0625 -20.761719 C 18.09375 -20.300781 24.242188 -20.183594 30.160156 -20.183594 C 33.753906 -20.066406 37.464844 -22.039062 38.859375 -25.285156 C 41.0625 -29.8125 39.785156 -35.148438 38.164062 -39.671875 C 35.957031 -45.007812 30.273438 -47.90625 24.824219 -48.601562 C 19.488281 -49.53125 13.804688 -47.90625 9.742188 -44.425781 C 4.988281 -40.480469 2.203125 -34.449219 1.390625 -28.417969 C 0.8125 -21.921875 0.8125 -14.5 5.453125 -9.164062 C 10.207031 -4.175781 17.167969 -1.507812 23.894531 -0.929688 C 30.855469 -0.117188 37.582031 -3.945312 41.410156 -9.511719 Z M 17.515625 -36.539062 C 20.53125 -38.625 24.707031 -38.046875 27.492188 -36.074219 C 28.535156 -34.683594 28.652344 -32.828125 29.113281 -31.203125 C 23.894531 -31.203125 18.675781 -31.320312 13.570312 -31.667969 C 14.617188 -33.523438 15.773438 -35.378906 17.515625 -36.539062 Z M 17.515625 -36.539062 "/></g></g></g><g fill="#e11887" fill-opacity="1"><g transform="translate(396.611373, 344.872902)"><g><path d="M 22.15625 -30.042969 C 25.402344 -30.96875 28.882812 -30.96875 32.363281 -30.738281 C 32.828125 -33.058594 32.710938 -35.496094 31.433594 -37.582031 C 28.652344 -43.265625 21.921875 -46.28125 15.773438 -45.703125 C 10.554688 -45.121094 6.378906 -40.945312 4.523438 -36.191406 C 1.855469 -29.578125 4.988281 -21.460938 11.25 -18.09375 C 14.035156 -16.585938 17.285156 -16.007812 20.066406 -14.5 C 21.226562 -14.035156 22.15625 -12.296875 20.996094 -11.25 C 19.488281 -9.164062 16.355469 -8.003906 14.035156 -9.394531 C 12.644531 -11.484375 11.714844 -13.804688 10.441406 -16.125 C 7.308594 -14.617188 4.058594 -13.222656 0.929688 -11.949219 C 2.667969 -7.191406 4.40625 -1.625 9.394531 0.8125 C 17.285156 4.753906 27.722656 0.695312 31.433594 -7.074219 C 33.988281 -12.644531 32.128906 -19.835938 27.027344 -23.199219 C 23.777344 -25.75 19.371094 -26.097656 15.890625 -28.1875 C 10.554688 -34.101562 22.734375 -37.8125 22.15625 -30.042969 Z M 27.257812 -34.683594 C 27.953125 -34.566406 28.304688 -33.40625 27.492188 -33.289062 C 26.5625 -33.058594 25.75 -32.828125 24.824219 -32.59375 C 24.011719 -32.363281 23.664062 -33.753906 24.476562 -33.871094 C 25.402344 -34.101562 26.445312 -34.683594 27.257812 -34.683594 Z M 23.546875 -37.003906 C 24.242188 -37.464844 25.171875 -37.929688 25.867188 -38.394531 C 26.792969 -38.859375 27.257812 -37.699219 26.5625 -37.234375 C 25.75 -36.769531 24.9375 -36.304688 24.242188 -35.84375 C 23.316406 -35.378906 22.851562 -36.539062 23.546875 -37.003906 Z M 20.53125 -39.324219 C 20.878906 -40.019531 21.109375 -40.714844 21.691406 -41.410156 C 22.269531 -41.988281 23.199219 -41.640625 22.734375 -40.714844 C 22.386719 -40.019531 22.039062 -39.324219 21.691406 -38.625 C 21.226562 -37.929688 20.183594 -38.625 20.53125 -39.324219 Z M 18.328125 -42.800781 C 18.675781 -42.800781 19.023438 -42.570312 19.023438 -42.222656 C 19.023438 -41.410156 18.90625 -40.367188 18.90625 -39.4375 C 18.90625 -38.625 17.746094 -38.625 17.746094 -39.4375 C 17.746094 -40.480469 17.285156 -42.800781 18.328125 -42.800781 Z M 5.914062 -8.351562 C 5.683594 -8.121094 5.105469 -8.234375 4.988281 -8.582031 C 4.753906 -8.816406 4.871094 -9.164062 5.21875 -9.394531 C 6.378906 -9.976562 7.539062 -10.554688 8.582031 -11.25 C 8.929688 -11.367188 9.394531 -11.25 9.511719 -11.019531 C 9.628906 -10.671875 9.628906 -10.324219 9.28125 -10.089844 C 8.121094 -9.394531 7.074219 -8.816406 5.914062 -8.351562 Z M 8.46875 -3.945312 C 8.234375 -3.710938 7.773438 -3.710938 7.539062 -3.945312 C 7.191406 -4.292969 7.308594 -4.523438 7.539062 -4.871094 C 8.46875 -6.03125 9.511719 -7.308594 10.554688 -8.46875 C 10.789062 -8.816406 11.25 -8.699219 11.484375 -8.46875 C 11.714844 -8.121094 11.714844 -7.773438 11.484375 -7.539062 C 10.441406 -6.378906 9.394531 -5.21875 8.46875 -3.945312 Z M 13.804688 -5.914062 C 13.457031 -4.871094 13.222656 -3.945312 12.875 -2.898438 C 12.644531 -2.667969 12.410156 -2.4375 11.949219 -2.4375 C 11.714844 -2.667969 11.484375 -2.898438 11.484375 -3.246094 C 11.949219 -4.292969 12.179688 -5.335938 12.527344 -6.265625 C 12.644531 -6.496094 12.875 -6.613281 13.109375 -6.613281 C 13.6875 -6.613281 13.804688 -6.148438 13.804688 -5.914062 Z M 7.539062 -34.683594 C 8.929688 -34.449219 10.324219 -34.21875 11.597656 -34.101562 C 12.410156 -34.101562 12.179688 -32.828125 11.597656 -32.828125 C 10.324219 -32.941406 8.929688 -33.058594 7.539062 -33.289062 C 6.84375 -33.523438 6.613281 -34.683594 7.539062 -34.683594 Z M 7.886719 -29.347656 C 8.816406 -29.578125 9.628906 -29.8125 10.671875 -30.160156 C 11.019531 -30.273438 11.25 -30.042969 11.484375 -29.695312 C 11.484375 -29.347656 11.25 -29 11.019531 -28.882812 C 10.089844 -28.535156 9.164062 -28.1875 8.234375 -27.953125 C 7.308594 -27.722656 7.074219 -29.113281 7.886719 -29.347656 Z M 12.875 -24.589844 C 11.949219 -24.011719 11.25 -23.429688 10.441406 -22.851562 C 9.628906 -22.386719 9.046875 -23.546875 9.742188 -24.011719 C 10.554688 -24.589844 11.25 -25.171875 12.179688 -25.75 C 12.875 -26.097656 13.570312 -24.824219 12.875 -24.589844 Z M 12.179688 -35.609375 C 11.484375 -36.304688 10.554688 -37.003906 9.859375 -37.582031 C 9.511719 -37.929688 9.628906 -38.394531 9.859375 -38.625 C 10.089844 -38.859375 10.441406 -38.625 10.789062 -38.625 C 11.484375 -37.929688 12.410156 -37.351562 13.109375 -36.539062 C 13.6875 -35.957031 12.757812 -35.148438 12.179688 -35.609375 Z M 16.820312 -1.625 C 16.820312 -1.277344 16.472656 -1.042969 16.125 -1.042969 C 15.890625 -1.042969 15.542969 -1.277344 15.542969 -1.625 C 15.660156 -2.785156 15.773438 -3.945312 15.773438 -5.105469 C 15.773438 -5.453125 16.125 -5.800781 16.472656 -5.800781 C 16.820312 -5.800781 17.167969 -5.453125 17.050781 -5.105469 C 17.050781 -3.945312 16.933594 -2.785156 16.820312 -1.625 Z M 26.332031 -5.453125 C 25.984375 -5.453125 25.867188 -5.566406 25.75 -5.683594 C 25.054688 -6.148438 24.242188 -6.613281 23.546875 -7.308594 C 23.316406 -7.539062 23.199219 -7.773438 23.316406 -8.121094 C 23.546875 -8.351562 24.011719 -8.699219 24.242188 -8.351562 C 25.054688 -7.773438 25.867188 -7.074219 26.792969 -6.496094 C 27.144531 -6.148438 26.792969 -5.453125 26.332031 -5.453125 Z M 28.417969 -10.441406 C 27.375 -10.441406 26.332031 -10.554688 25.402344 -10.671875 C 24.9375 -10.789062 24.476562 -11.25 24.9375 -11.714844 C 25.054688 -11.949219 27.492188 -11.832031 28.417969 -11.714844 C 29.347656 -11.714844 29.113281 -10.324219 28.417969 -10.441406 Z M 27.953125 -17.285156 C 28.1875 -17.398438 28.652344 -17.285156 28.882812 -17.050781 C 29 -16.703125 28.882812 -16.238281 28.652344 -16.125 C 27.492188 -15.542969 26.332031 -14.964844 25.171875 -14.5 C 24.9375 -14.265625 24.476562 -14.265625 24.242188 -14.730469 C 24.128906 -14.964844 24.242188 -15.425781 24.476562 -15.542969 C 25.636719 -16.125 26.792969 -16.703125 27.953125 -17.285156 Z M 22.617188 -18.90625 C 23.316406 -19.601562 24.011719 -20.300781 24.707031 -20.996094 C 24.9375 -21.226562 25.402344 -21.226562 25.636719 -20.996094 C 25.867188 -20.648438 25.867188 -20.300781 25.636719 -20.066406 C 25.054688 -19.371094 24.242188 -18.558594 23.546875 -18.09375 C 22.96875 -17.515625 22.15625 -18.441406 22.617188 -18.90625 Z M 21.691406 -1.507812 C 21.460938 -1.277344 20.996094 -1.160156 20.761719 -1.507812 C 20.300781 -3.363281 20.183594 -4.640625 19.949219 -5.914062 C 19.835938 -6.378906 20.066406 -6.726562 20.53125 -6.726562 C 20.761719 -6.726562 21.109375 -6.613281 21.226562 -6.265625 C 21.460938 -4.753906 21.691406 -3.363281 21.921875 -1.972656 C 21.921875 -1.738281 21.691406 -1.625 21.691406 -1.507812 Z M 18.558594 -20.066406 C 19.140625 -20.996094 19.835938 -22.15625 20.414062 -23.199219 C 20.761719 -23.894531 21.921875 -23.316406 21.460938 -22.617188 C 20.878906 -21.460938 20.300781 -20.414062 19.71875 -19.371094 C 19.140625 -18.675781 18.09375 -19.371094 18.558594 -20.066406 Z M 15.425781 -24.359375 C 15.773438 -24.9375 17.050781 -24.707031 16.820312 -24.011719 C 16.355469 -23.082031 16.007812 -22.15625 15.660156 -21.226562 C 15.3125 -20.414062 14.035156 -20.878906 14.382812 -21.691406 C 14.730469 -22.503906 15.195312 -23.429688 15.425781 -24.359375 Z M 14.265625 -39.089844 C 13.917969 -39.554688 13.570312 -40.132812 13.339844 -40.480469 C 12.875 -41.410156 14.035156 -41.875 14.5 -41.179688 C 14.617188 -40.945312 16.238281 -38.859375 15.773438 -38.394531 C 15.078125 -37.699219 14.5 -38.742188 14.265625 -39.089844 Z M 14.265625 -39.089844 "/></g></g></g><g fill="#e11887" fill-opacity="1"><g transform="translate(430.36508, 344.872902)"><g><path d="M 1.738281 -61.128906 C 1.625 -56.835938 1.160156 -52.546875 2.089844 -48.371094 C 5.683594 -48.484375 9.046875 -48.832031 12.527344 -49.066406 C 12.527344 -53.125 12.644531 -57.183594 12.644531 -61.246094 C 8.929688 -61.246094 5.335938 -61.246094 1.738281 -61.128906 Z M 1.855469 -41.757812 C 1.972656 -39.902344 1.972656 -37.929688 1.972656 -36.074219 C 5.683594 -36.539062 9.394531 -37.117188 13.109375 -37.582031 C 12.992188 -39.324219 12.875 -40.945312 12.757812 -42.6875 C 9.164062 -42.453125 5.453125 -42.222656 1.855469 -41.757812 Z M 1.972656 -34.683594 C 1.972656 -32.128906 1.972656 -29.8125 1.972656 -27.257812 C 5.683594 -27.722656 9.394531 -28.070312 13.109375 -28.304688 C 13.109375 -30.96875 13.109375 -33.523438 13.109375 -36.074219 C 9.394531 -35.609375 5.683594 -35.148438 1.972656 -34.683594 Z M 1.972656 -25.867188 C 1.972656 -22.039062 1.972656 -18.210938 2.089844 -14.265625 C 5.800781 -14.730469 9.394531 -14.964844 13.109375 -15.425781 C 13.109375 -19.253906 13.109375 -23.082031 13.109375 -26.910156 C 9.394531 -26.5625 5.683594 -26.332031 1.972656 -25.867188 Z M 3.710938 -0.347656 C 7.074219 -1.042969 10.441406 -1.738281 13.804688 -2.4375 C 13.222656 -6.265625 13.339844 -10.089844 13.109375 -13.917969 C 9.394531 -13.570312 5.800781 -13.222656 2.203125 -12.875 C 2.4375 -8.699219 1.625 -4.175781 3.710938 -0.347656 Z M 3.710938 -0.347656 "/></g></g></g><g fill="#e11887" fill-opacity="1"><g transform="translate(445.908021, 344.872902)"><g><path d="M 16.820312 14.382812 C 14.964844 12.875 15.425781 9.976562 15.078125 7.773438 C 11.484375 8.234375 7.773438 8.582031 4.175781 8.929688 C 4.058594 14.5 5.800781 20.996094 11.019531 24.011719 C 16.125 26.5625 22.039062 25.984375 27.257812 24.242188 C 33.058594 22.15625 37.351562 16.820312 38.859375 10.789062 C 41.179688 2.089844 40.367188 -7.074219 39.671875 -16.007812 C 39.324219 -21.226562 39.671875 -26.792969 38.277344 -31.898438 C 36.769531 -34.21875 35.03125 -36.304688 33.058594 -38.046875 C 28.882812 -41.292969 23.082031 -42.453125 17.980469 -40.945312 C 7.308594 -38.742188 -0.347656 -27.492188 1.390625 -16.820312 C 2.320312 -8.816406 9.742188 -3.015625 17.285156 -1.972656 C 21.460938 -1.160156 25.636719 -2.203125 29.347656 -3.945312 C 29.230469 0.929688 29.347656 6.148438 27.144531 10.554688 C 25.285156 14.265625 20.414062 15.195312 16.820312 14.382812 Z M 25.054688 -19.601562 C 24.9375 -19.488281 24.707031 -19.371094 24.476562 -19.488281 C 24.011719 -19.601562 23.777344 -19.835938 23.546875 -20.066406 C 22.96875 -20.761719 22.15625 -21.460938 21.460938 -21.921875 C 20.878906 -21.226562 20.300781 -20.648438 19.835938 -19.949219 C 19.488281 -19.601562 19.023438 -19.140625 18.675781 -19.371094 C 18.441406 -19.601562 18.328125 -19.835938 18.441406 -20.183594 C 18.441406 -20.414062 18.675781 -20.648438 18.90625 -20.878906 C 19.371094 -21.460938 19.835938 -22.15625 20.414062 -22.851562 C 19.488281 -23.546875 18.558594 -24.476562 17.515625 -25.285156 C 17.285156 -25.519531 16.820312 -25.867188 17.050781 -26.332031 C 17.167969 -26.5625 17.515625 -26.679688 17.863281 -26.5625 C 18.09375 -26.5625 18.328125 -26.332031 18.558594 -26.097656 C 19.371094 -25.402344 20.300781 -24.707031 21.226562 -23.777344 C 21.921875 -24.707031 22.503906 -25.519531 23.082031 -26.332031 C 23.316406 -26.5625 23.429688 -26.679688 23.664062 -26.792969 C 23.894531 -27.027344 24.242188 -27.027344 24.476562 -26.792969 C 24.707031 -26.5625 24.476562 -25.867188 24.242188 -25.519531 C 23.546875 -24.707031 22.96875 -23.777344 22.269531 -23.082031 C 23.082031 -22.386719 23.894531 -21.691406 24.707031 -20.878906 C 25.054688 -20.648438 25.285156 -19.949219 25.054688 -19.601562 Z M 25.054688 -19.601562 "/></g></g></g><g fill="#e11887" fill-opacity="1"><g transform="translate(487.433204, 344.872902)"><g><path d="M 37.351562 0.347656 C 38.859375 -8.582031 39.089844 -17.746094 37.929688 -26.792969 C 37.117188 -33.289062 33.523438 -39.902344 27.375 -42.6875 C 22.386719 -45.121094 16.585938 -44.195312 11.25 -44.308594 C 11.019531 -44.773438 10.671875 -45.46875 10.441406 -45.933594 C 10.324219 -45.585938 3.828125 -43.730469 0.8125 -43.5 C 1.042969 -28.652344 2.203125 -13.804688 3.132812 1.042969 C 6.496094 1.277344 9.976562 1.277344 13.457031 1.277344 C 13.6875 -1.042969 13.804688 -3.480469 13.6875 -5.800781 C 13.109375 -14.964844 12.527344 -24.011719 12.179688 -33.058594 C 15.3125 -33.289062 18.558594 -33.753906 21.691406 -33.058594 C 24.589844 -32.246094 26.097656 -29.347656 26.679688 -26.5625 C 28.417969 -18.09375 27.257812 -9.394531 26.792969 -0.8125 C 30.273438 -0.347656 33.753906 0.117188 37.351562 0.347656 Z M 37.351562 0.347656 "/></g></g></g><g clip-path="url(#6186ca245a)"><path fill="#00a1ff" d="M 489.484375 270.304688 L 481.367188 270.304688 C 473.152344 270.304688 466.480469 263.695312 466.480469 255.558594 C 466.480469 247.421875 473.152344 240.8125 481.367188 240.8125 L 482.71875 240.8125 C 482.71875 232.675781 489.386719 226.070312 497.601562 226.070312 C 505.816406 226.070312 512.484375 232.675781 512.484375 240.8125 L 513.835938 240.8125 C 522.050781 240.8125 528.722656 247.421875 528.722656 255.558594 C 528.722656 258.601562 527.789062 261.429688 526.191406 263.78125 C 526.953125 265.8125 527.367188 268.011719 527.367188 270.304688 C 527.367188 280.660156 518.878906 289.070312 508.425781 289.070312 C 497.972656 289.070312 489.484375 280.660156 489.484375 270.304688 Z M 489.484375 270.304688 " fill-opacity="1" fill-rule="evenodd"/></g><g clip-path="url(#73273067d3)"><path fill="#ffffff" d="M 508.425781 251.539062 C 497.972656 251.539062 489.484375 259.945312 489.484375 270.304688 C 489.484375 280.660156 497.972656 289.070312 508.425781 289.070312 C 518.878906 289.070312 527.367188 280.660156 527.367188 270.304688 C 527.367188 259.945312 518.878906 251.539062 508.425781 251.539062 Z M 502.15625 280.128906 C 500.675781 280.679688 499.191406 281.429688 497.703125 282.378906 C 499.996094 284.378906 502.863281 285.75 506.027344 286.214844 C 504.433594 284.179688 503.144531 282.152344 502.15625 280.128906 Z M 514.792969 280.148438 C 513.804688 282.171875 512.5 284.191406 510.875 286.207031 C 514.019531 285.734375 516.867188 284.367188 519.152344 282.375 C 517.703125 281.445312 516.25 280.703125 514.792969 280.148438 Z M 512.171875 279.359375 C 509.722656 278.8125 507.257812 278.804688 504.78125 279.347656 C 505.726562 281.199219 506.945312 283.054688 508.445312 284.921875 C 509.980469 283.070312 511.222656 281.214844 512.171875 279.359375 Z M 499.765625 271.644531 L 492.246094 271.644531 C 492.519531 274.949219 493.808594 277.972656 495.796875 280.410156 C 497.566406 279.238281 499.332031 278.316406 501.089844 277.636719 C 500.351562 275.632812 499.910156 273.632812 499.765625 271.644531 Z M 524.605469 271.644531 L 517.109375 271.644531 C 516.988281 273.652344 516.574219 275.65625 515.851562 277.65625 C 517.59375 278.335938 519.328125 279.253906 521.054688 280.40625 C 523.042969 277.972656 524.332031 274.949219 524.605469 271.644531 Z M 514.394531 271.644531 L 502.480469 271.644531 C 502.625 273.367188 503.019531 275.085938 503.664062 276.816406 C 506.890625 276 510.09375 276.011719 513.277344 276.824219 C 513.90625 275.101562 514.28125 273.375 514.394531 271.644531 Z M 495.796875 260.199219 C 493.808594 262.636719 492.519531 265.65625 492.246094 268.964844 L 499.742188 268.964844 C 499.859375 266.957031 500.277344 264.953125 501 262.953125 C 499.257812 262.273438 497.523438 261.355469 495.796875 260.199219 Z M 503.574219 263.785156 C 502.945312 265.507812 502.570312 267.230469 502.453125 268.964844 L 514.371094 268.964844 C 514.226562 267.242188 513.832031 265.519531 513.1875 263.792969 C 509.960938 264.605469 506.757812 264.59375 503.574219 263.785156 Z M 521.054688 260.195312 C 519.285156 261.367188 517.519531 262.292969 515.761719 262.96875 C 516.5 264.972656 516.941406 266.972656 517.085938 268.964844 L 524.605469 268.964844 C 524.332031 265.65625 523.042969 262.632812 521.054688 260.195312 Z M 508.40625 255.6875 C 506.871094 257.539062 505.628906 259.390625 504.679688 261.25 C 507.128906 261.792969 509.59375 261.800781 512.070312 261.257812 C 511.125 259.40625 509.90625 257.550781 508.40625 255.6875 Z M 510.824219 254.394531 C 512.417969 256.425781 513.707031 258.457031 514.695312 260.480469 C 516.175781 259.925781 517.660156 259.175781 519.148438 258.226562 C 516.855469 256.226562 513.988281 254.859375 510.824219 254.394531 Z M 505.976562 254.402344 C 502.832031 254.871094 499.984375 256.238281 497.699219 258.230469 C 499.148438 259.164062 500.601562 259.90625 502.058594 260.460938 C 503.046875 258.433594 504.351562 256.414062 505.976562 254.402344 Z M 505.976562 254.402344 " fill-opacity="1" fill-rule="evenodd"/></g><g fill="#000000" fill-opacity="1"><g transform="translate(300.803426, 277.989397)"><g><path d="M 17.5625 0 L 1.15625 -50.25 L 10.875 -50.25 L 18.578125 -25.78125 L 23.046875 -9.078125 L 23.25 -9.078125 L 27.640625 -25.78125 L 35.359375 -50.25 L 44.78125 -50.25 L 28.375 0 Z M 17.5625 0 "/></g></g></g><g fill="#000000" fill-opacity="1"><g transform="translate(345.299403, 277.989397)"><g><path d="M 3.8125 0 L 3.8125 -7.625 L 10.4375 -7.625 L 10.4375 -42.625 L 3.8125 -42.625 L 3.8125 -50.25 L 26.640625 -50.25 L 26.640625 -42.625 L 19.9375 -42.625 L 19.9375 -7.625 L 26.640625 -7.625 L 26.640625 0 Z M 3.8125 0 "/></g></g></g><g fill="#000000" fill-opacity="1"><g transform="translate(374.315393, 277.989397)"><g><path d="M 17.5625 0 L 1.15625 -50.25 L 10.875 -50.25 L 18.578125 -25.78125 L 23.046875 -9.078125 L 23.25 -9.078125 L 27.640625 -25.78125 L 35.359375 -50.25 L 44.78125 -50.25 L 28.375 0 Z M 17.5625 0 "/></g></g></g><g fill="#000000" fill-opacity="1"><g transform="translate(418.81137, 277.989397)"><g><path d="M 37.015625 0 L 32.96875 -12.8125 L 15.125 -12.8125 L 11.15625 0 L 1.515625 0 L 18.359375 -50.25 L 30.171875 -50.25 L 46.875 0 Z M 24.1875 -41.609375 L 23.828125 -41.609375 L 17.421875 -20.953125 L 30.671875 -20.953125 Z M 24.1875 -41.609375 "/></g></g></g></svg>