<svg xmlns="http://www.w3.org/2000/svg" xmlns:xlink="http://www.w3.org/1999/xlink" width="1024" zoomAndPan="magnify" viewBox="0 0 768 576" height="768" preserveAspectRatio="xMidYMid meet" version="1.0"><defs><g/><clipPath id="bf404a447c"><path d="M 456.621094 208.671875 L 520.371094 208.671875 L 520.371094 273.921875 L 456.621094 273.921875 Z M 456.621094 208.671875 " clip-rule="nonzero"/></clipPath><clipPath id="1907326c48"><path d="M 480 235 L 519 235 L 519 273.921875 L 480 273.921875 Z M 480 235 " clip-rule="nonzero"/></clipPath></defs><g clip-path="url(#bf404a447c)"><path fill="#ffffff" d="M 480.183594 254.484375 L 471.871094 254.484375 C 463.457031 254.484375 456.628906 247.640625 456.628906 239.214844 C 456.628906 230.785156 463.457031 223.941406 471.871094 223.941406 L 473.253906 223.941406 C 473.253906 215.515625 480.085938 208.671875 488.496094 208.671875 C 496.910156 208.671875 503.738281 215.515625 503.738281 223.941406 L 505.125 223.941406 C 513.535156 223.941406 520.367188 230.785156 520.367188 239.214844 C 520.367188 242.367188 519.414062 245.296875 517.777344 247.730469 C 518.554688 249.835938 518.980469 252.109375 518.980469 254.484375 C 518.980469 265.210938 510.289062 273.921875 499.582031 273.921875 C 488.875 273.921875 480.183594 265.210938 480.183594 254.484375 Z M 480.183594 254.484375 " fill-opacity="1" fill-rule="evenodd"/></g><g clip-path="url(#1907326c48)"><path fill="#00a1ff" d="M 499.582031 235.050781 C 488.875 235.050781 480.183594 243.757812 480.183594 254.484375 C 480.183594 265.210938 488.875 273.921875 499.582031 273.921875 C 510.289062 273.921875 518.980469 265.210938 518.980469 254.484375 C 518.980469 243.757812 510.289062 235.050781 499.582031 235.050781 Z M 493.160156 264.660156 C 491.648438 265.234375 490.125 266.007812 488.601562 266.992188 C 490.949219 269.0625 493.886719 270.484375 497.128906 270.964844 C 495.496094 268.859375 494.171875 266.757812 493.160156 264.660156 Z M 506.105469 264.679688 C 505.089844 266.777344 503.753906 268.871094 502.089844 270.957031 C 505.308594 270.46875 508.230469 269.050781 510.566406 266.988281 C 509.085938 266.023438 507.597656 265.253906 506.105469 264.679688 Z M 503.417969 263.863281 C 500.910156 263.300781 498.386719 263.292969 495.847656 263.855469 C 496.816406 265.769531 498.066406 267.695312 499.601562 269.625 C 501.175781 267.707031 502.449219 265.789062 503.417969 263.863281 Z M 490.710938 255.875 L 483.011719 255.875 C 483.292969 259.296875 484.613281 262.429688 486.648438 264.953125 C 488.460938 263.738281 490.269531 262.78125 492.066406 262.082031 C 491.3125 260.003906 490.863281 257.933594 490.710938 255.875 Z M 516.152344 255.875 L 508.472656 255.875 C 508.351562 257.953125 507.925781 260.027344 507.1875 262.097656 C 508.972656 262.804688 510.746094 263.753906 512.515625 264.949219 C 514.554688 262.429688 515.871094 259.296875 516.152344 255.875 Z M 505.695312 255.875 L 493.492188 255.875 C 493.640625 257.65625 494.046875 259.441406 494.703125 261.230469 C 498.011719 260.386719 501.292969 260.398438 504.550781 261.238281 C 505.195312 259.453125 505.578125 257.667969 505.695312 255.875 Z M 486.648438 244.019531 C 484.613281 246.542969 483.292969 249.671875 483.011719 253.097656 L 490.691406 253.097656 C 490.8125 251.019531 491.238281 248.941406 491.976562 246.871094 C 490.191406 246.167969 488.417969 245.214844 486.648438 244.019531 Z M 494.613281 247.734375 C 493.96875 249.515625 493.585938 251.304688 493.46875 253.097656 L 505.671875 253.097656 C 505.523438 251.3125 505.117188 249.53125 504.460938 247.742188 C 501.152344 248.582031 497.871094 248.574219 494.613281 247.734375 Z M 512.515625 244.015625 C 510.703125 245.230469 508.894531 246.1875 507.097656 246.890625 C 507.851562 248.964844 508.300781 251.035156 508.453125 253.097656 L 516.152344 253.097656 C 515.871094 249.671875 514.554688 246.542969 512.515625 244.015625 Z M 499.5625 239.347656 C 497.988281 241.261719 496.71875 243.183594 495.746094 245.105469 C 498.253906 245.671875 500.777344 245.679688 503.316406 245.117188 C 502.347656 243.199219 501.097656 241.277344 499.5625 239.347656 Z M 502.039062 238.007812 C 503.671875 240.113281 504.992188 242.214844 506.003906 244.308594 C 507.519531 243.738281 509.039062 242.960938 510.5625 241.976562 C 508.214844 239.90625 505.277344 238.488281 502.039062 238.007812 Z M 497.074219 238.015625 C 493.855469 238.503906 490.9375 239.917969 488.597656 241.980469 C 490.078125 242.945312 491.566406 243.714844 493.058594 244.289062 C 494.074219 242.191406 495.410156 240.101562 497.074219 238.015625 Z M 497.074219 238.015625 " fill-opacity="1" fill-rule="evenodd"/></g><g fill="#ffffff" fill-opacity="1"><g transform="translate(275.398846, 263.550083)"><g><path d="M 19.03125 0 L 1.25 -54.4375 L 11.78125 -54.4375 L 20.125 -27.921875 L 24.953125 -9.828125 L 25.1875 -9.828125 L 29.953125 -27.921875 L 38.296875 -54.4375 L 48.515625 -54.4375 L 30.734375 0 Z M 19.03125 0 "/></g></g></g><g fill="#ffffff" fill-opacity="1"><g transform="translate(323.602881, 263.550083)"><g><path d="M 4.140625 0 L 4.140625 -8.265625 L 11.3125 -8.265625 L 11.3125 -46.171875 L 4.140625 -46.171875 L 4.140625 -54.4375 L 28.859375 -54.4375 L 28.859375 -46.171875 L 21.609375 -46.171875 L 21.609375 -8.265625 L 28.859375 -8.265625 L 28.859375 0 Z M 4.140625 0 "/></g></g></g><g fill="#ffffff" fill-opacity="1"><g transform="translate(355.036893, 263.550083)"><g><path d="M 19.03125 0 L 1.25 -54.4375 L 11.78125 -54.4375 L 20.125 -27.921875 L 24.953125 -9.828125 L 25.1875 -9.828125 L 29.953125 -27.921875 L 38.296875 -54.4375 L 48.515625 -54.4375 L 30.734375 0 Z M 19.03125 0 "/></g></g></g><g fill="#ffffff" fill-opacity="1"><g transform="translate(403.240928, 263.550083)"><g><path d="M 40.09375 0 L 35.71875 -13.890625 L 16.375 -13.890625 L 12.09375 0 L 1.640625 0 L 19.890625 -54.4375 L 32.6875 -54.4375 L 50.78125 0 Z M 26.203125 -45.078125 L 25.8125 -45.078125 L 18.875 -22.703125 L 33.234375 -22.703125 Z M 26.203125 -45.078125 "/></g></g></g><g fill="#ff1694" fill-opacity="1"><g transform="translate(276.190565, 346.775161)"><g><path d="M 43.46875 -58.710938 C 38.425781 -62.871094 31.875 -63.753906 25.703125 -64.886719 C 19.277344 -65.136719 12.976562 -64.507812 6.675781 -63.625 C 5.039062 -61.863281 5.667969 -59.46875 5.667969 -57.328125 C 18.269531 -57.199219 30.867188 -58.082031 43.46875 -58.710938 Z M 49.640625 -50.523438 C 48.507812 -53.042969 46.996094 -55.3125 45.230469 -57.328125 C 31.875 -56.570312 18.773438 -55.816406 5.542969 -55.816406 C 5.417969 -53.671875 5.292969 -51.65625 5.164062 -49.640625 C 19.90625 -48.886719 34.898438 -49.515625 49.640625 -50.523438 Z M 50.269531 -49.011719 C 41.828125 -48.757812 33.386719 -48.003906 24.945312 -47.75 C 18.269531 -47.75 11.589844 -48.003906 4.914062 -48.128906 C 4.660156 -45.230469 4.410156 -42.207031 4.15625 -39.183594 C 20.285156 -39.4375 36.410156 -39.8125 52.414062 -40.570312 C 52.035156 -43.46875 51.277344 -46.238281 50.269531 -49.011719 Z M 52.539062 -38.933594 C 36.410156 -38.300781 20.160156 -37.921875 3.90625 -37.671875 C 3.78125 -35.152344 3.652344 -32.632812 3.402344 -30.113281 C 19.78125 -30.363281 36.160156 -31.371094 52.539062 -32.253906 C 52.539062 -34.523438 52.539062 -36.789062 52.539062 -38.933594 Z M 52.414062 -30.617188 C 36.035156 -29.859375 19.78125 -28.851562 3.402344 -28.601562 C 3.148438 -26.332031 3.148438 -23.8125 2.898438 -21.542969 C 19.277344 -22.550781 35.53125 -24.066406 51.78125 -25.199219 C 52.035156 -27.089844 52.285156 -28.851562 52.414062 -30.617188 Z M 51.53125 -23.5625 C 35.277344 -22.550781 19.152344 -21.039062 2.898438 -20.03125 C 2.898438 -17.765625 2.898438 -15.496094 2.898438 -13.230469 C 18.144531 -13.984375 33.386719 -14.992188 48.757812 -16 C 50.019531 -18.394531 50.773438 -21.039062 51.53125 -23.5625 Z M 23.308594 -1.636719 C 26.585938 -1.386719 29.984375 -1.890625 33.261719 -2.394531 C 39.941406 -3.402344 44.726562 -8.820312 48.003906 -14.363281 C 33.011719 -13.480469 18.015625 -12.347656 2.898438 -11.71875 C 2.644531 -8.820312 1.765625 -5.417969 4.285156 -3.277344 C 10.582031 -2.394531 17.007812 -2.140625 23.308594 -1.636719 Z M 23.308594 -1.636719 "/></g></g></g><g fill="#ff1694" fill-opacity="1"><g transform="translate(331.499457, 346.775161)"><g><path d="M 44.980469 -10.332031 C 42.460938 -12.976562 39.6875 -15.75 37.042969 -18.519531 C 35.027344 -16.757812 33.261719 -14.742188 30.867188 -13.605469 C 28.347656 -12.472656 25.449219 -12.976562 22.804688 -13.605469 C 18.519531 -14.992188 13.480469 -17.386719 13.101562 -22.550781 C 19.65625 -22.046875 26.332031 -21.921875 32.757812 -21.921875 C 36.664062 -21.796875 40.695312 -23.9375 42.207031 -27.464844 C 44.601562 -32.378906 43.214844 -38.175781 41.453125 -43.089844 C 39.058594 -48.886719 32.882812 -52.035156 26.960938 -52.789062 C 21.167969 -53.796875 14.992188 -52.035156 10.582031 -48.253906 C 5.417969 -43.972656 2.394531 -37.417969 1.511719 -30.867188 C 0.882812 -23.8125 0.882812 -15.75 5.921875 -9.953125 C 11.085938 -4.535156 18.648438 -1.636719 25.953125 -1.007812 C 33.515625 -0.125 40.820312 -4.285156 44.980469 -10.332031 Z M 19.023438 -39.6875 C 22.300781 -41.957031 26.835938 -41.324219 29.859375 -39.183594 C 30.996094 -37.671875 31.121094 -35.65625 31.625 -33.890625 C 25.953125 -33.890625 20.285156 -34.019531 14.742188 -34.394531 C 15.875 -36.410156 17.136719 -38.425781 19.023438 -39.6875 Z M 19.023438 -39.6875 "/></g></g></g><g fill="#ff1694" fill-opacity="1"><g transform="translate(378.493119, 346.775161)"><g><path d="M 24.066406 -32.632812 C 27.59375 -33.640625 31.371094 -33.640625 35.152344 -33.386719 C 35.65625 -35.90625 35.53125 -38.554688 34.144531 -40.820312 C 31.121094 -46.996094 23.8125 -50.269531 17.136719 -49.640625 C 11.464844 -49.011719 6.929688 -44.476562 4.914062 -39.308594 C 2.015625 -32.128906 5.417969 -23.308594 12.222656 -19.65625 C 15.246094 -18.015625 18.773438 -17.386719 21.796875 -15.75 C 23.054688 -15.246094 24.066406 -13.355469 22.804688 -12.222656 C 21.167969 -9.953125 17.765625 -8.695312 15.246094 -10.207031 C 13.734375 -12.472656 12.726562 -14.992188 11.339844 -17.511719 C 7.9375 -15.875 4.410156 -14.363281 1.007812 -12.976562 C 2.898438 -7.8125 4.789062 -1.765625 10.207031 0.882812 C 18.773438 5.164062 30.113281 0.757812 34.144531 -7.683594 C 36.914062 -13.734375 34.898438 -21.542969 29.355469 -25.199219 C 25.828125 -27.96875 21.039062 -28.347656 17.261719 -30.617188 C 11.464844 -37.042969 24.695312 -41.074219 24.066406 -32.632812 Z M 29.609375 -37.671875 C 30.363281 -37.546875 30.742188 -36.285156 29.859375 -36.160156 C 28.851562 -35.90625 27.96875 -35.65625 26.960938 -35.402344 C 26.082031 -35.152344 25.703125 -36.664062 26.585938 -36.789062 C 27.59375 -37.042969 28.726562 -37.671875 29.609375 -37.671875 Z M 25.578125 -40.191406 C 26.332031 -40.695312 27.339844 -41.199219 28.097656 -41.703125 C 29.105469 -42.207031 29.609375 -40.949219 28.851562 -40.445312 C 27.96875 -39.941406 27.089844 -39.4375 26.332031 -38.933594 C 25.324219 -38.425781 24.820312 -39.6875 25.578125 -40.191406 Z M 22.300781 -42.710938 C 22.679688 -43.46875 22.929688 -44.222656 23.5625 -44.980469 C 24.191406 -45.609375 25.199219 -45.230469 24.695312 -44.222656 C 24.316406 -43.46875 23.9375 -42.710938 23.5625 -41.957031 C 23.054688 -41.199219 21.921875 -41.957031 22.300781 -42.710938 Z M 19.90625 -46.492188 C 20.285156 -46.492188 20.664062 -46.238281 20.664062 -45.859375 C 20.664062 -44.980469 20.535156 -43.84375 20.535156 -42.835938 C 20.535156 -41.957031 19.277344 -41.957031 19.277344 -42.835938 C 19.277344 -43.972656 18.773438 -46.492188 19.90625 -46.492188 Z M 6.425781 -9.070312 C 6.171875 -8.820312 5.542969 -8.945312 5.417969 -9.324219 C 5.164062 -9.574219 5.292969 -9.953125 5.667969 -10.207031 C 6.929688 -10.835938 8.191406 -11.464844 9.324219 -12.222656 C 9.703125 -12.347656 10.207031 -12.222656 10.332031 -11.96875 C 10.457031 -11.589844 10.457031 -11.214844 10.078125 -10.960938 C 8.820312 -10.207031 7.683594 -9.574219 6.425781 -9.070312 Z M 9.199219 -4.285156 C 8.945312 -4.03125 8.441406 -4.03125 8.191406 -4.285156 C 7.8125 -4.660156 7.9375 -4.914062 8.191406 -5.292969 C 9.199219 -6.550781 10.332031 -7.9375 11.464844 -9.199219 C 11.71875 -9.574219 12.222656 -9.449219 12.472656 -9.199219 C 12.726562 -8.820312 12.726562 -8.441406 12.472656 -8.191406 C 11.339844 -6.929688 10.207031 -5.667969 9.199219 -4.285156 Z M 14.992188 -6.425781 C 14.613281 -5.292969 14.363281 -4.285156 13.984375 -3.148438 C 13.734375 -2.898438 13.480469 -2.644531 12.976562 -2.644531 C 12.726562 -2.898438 12.472656 -3.148438 12.472656 -3.527344 C 12.976562 -4.660156 13.230469 -5.796875 13.605469 -6.804688 C 13.734375 -7.054688 13.984375 -7.179688 14.238281 -7.179688 C 14.867188 -7.179688 14.992188 -6.675781 14.992188 -6.425781 Z M 8.191406 -37.671875 C 9.703125 -37.417969 11.214844 -37.167969 12.597656 -37.042969 C 13.480469 -37.042969 13.230469 -35.65625 12.597656 -35.65625 C 11.214844 -35.78125 9.703125 -35.90625 8.191406 -36.160156 C 7.433594 -36.410156 7.179688 -37.671875 8.191406 -37.671875 Z M 8.566406 -31.875 C 9.574219 -32.128906 10.457031 -32.378906 11.589844 -32.757812 C 11.96875 -32.882812 12.222656 -32.632812 12.472656 -32.253906 C 12.472656 -31.875 12.222656 -31.5 11.96875 -31.371094 C 10.960938 -30.996094 9.953125 -30.617188 8.945312 -30.363281 C 7.9375 -30.113281 7.683594 -31.625 8.566406 -31.875 Z M 13.984375 -26.710938 C 12.976562 -26.082031 12.222656 -25.449219 11.339844 -24.820312 C 10.457031 -24.316406 9.828125 -25.578125 10.582031 -26.082031 C 11.464844 -26.710938 12.222656 -27.339844 13.230469 -27.96875 C 13.984375 -28.347656 14.742188 -26.960938 13.984375 -26.710938 Z M 13.230469 -38.679688 C 12.472656 -39.4375 11.464844 -40.191406 10.710938 -40.820312 C 10.332031 -41.199219 10.457031 -41.703125 10.710938 -41.957031 C 10.960938 -42.207031 11.339844 -41.957031 11.71875 -41.957031 C 12.472656 -41.199219 13.480469 -40.570312 14.238281 -39.6875 C 14.867188 -39.058594 13.859375 -38.175781 13.230469 -38.679688 Z M 18.269531 -1.765625 C 18.269531 -1.386719 17.890625 -1.132812 17.511719 -1.132812 C 17.261719 -1.132812 16.882812 -1.386719 16.882812 -1.765625 C 17.007812 -3.023438 17.136719 -4.285156 17.136719 -5.542969 C 17.136719 -5.921875 17.511719 -6.300781 17.890625 -6.300781 C 18.269531 -6.300781 18.648438 -5.921875 18.519531 -5.542969 C 18.519531 -4.285156 18.394531 -3.023438 18.269531 -1.765625 Z M 28.601562 -5.921875 C 28.222656 -5.921875 28.097656 -6.046875 27.96875 -6.171875 C 27.214844 -6.675781 26.332031 -7.179688 25.578125 -7.9375 C 25.324219 -8.191406 25.199219 -8.441406 25.324219 -8.820312 C 25.578125 -9.070312 26.082031 -9.449219 26.332031 -9.070312 C 27.214844 -8.441406 28.097656 -7.683594 29.105469 -7.054688 C 29.480469 -6.675781 29.105469 -5.921875 28.601562 -5.921875 Z M 30.867188 -11.339844 C 29.734375 -11.339844 28.601562 -11.464844 27.59375 -11.589844 C 27.089844 -11.71875 26.585938 -12.222656 27.089844 -12.726562 C 27.214844 -12.976562 29.859375 -12.851562 30.867188 -12.726562 C 31.875 -12.726562 31.625 -11.214844 30.867188 -11.339844 Z M 30.363281 -18.773438 C 30.617188 -18.898438 31.121094 -18.773438 31.371094 -18.519531 C 31.5 -18.144531 31.371094 -17.640625 31.121094 -17.511719 C 29.859375 -16.882812 28.601562 -16.253906 27.339844 -15.75 C 27.089844 -15.496094 26.585938 -15.496094 26.332031 -16 C 26.207031 -16.253906 26.332031 -16.757812 26.585938 -16.882812 C 27.84375 -17.511719 29.105469 -18.144531 30.363281 -18.773438 Z M 24.570312 -20.535156 C 25.324219 -21.292969 26.082031 -22.046875 26.835938 -22.804688 C 27.089844 -23.054688 27.59375 -23.054688 27.84375 -22.804688 C 28.097656 -22.425781 28.097656 -22.046875 27.84375 -21.796875 C 27.214844 -21.039062 26.332031 -20.160156 25.578125 -19.65625 C 24.945312 -19.023438 24.066406 -20.03125 24.570312 -20.535156 Z M 23.5625 -1.636719 C 23.308594 -1.386719 22.804688 -1.261719 22.550781 -1.636719 C 22.046875 -3.652344 21.921875 -5.039062 21.671875 -6.425781 C 21.542969 -6.929688 21.796875 -7.308594 22.300781 -7.308594 C 22.550781 -7.308594 22.929688 -7.179688 23.054688 -6.804688 C 23.308594 -5.164062 23.5625 -3.652344 23.8125 -2.140625 C 23.8125 -1.890625 23.5625 -1.765625 23.5625 -1.636719 Z M 20.160156 -21.796875 C 20.789062 -22.804688 21.542969 -24.066406 22.175781 -25.199219 C 22.550781 -25.953125 23.8125 -25.324219 23.308594 -24.570312 C 22.679688 -23.308594 22.046875 -22.175781 21.417969 -21.039062 C 20.789062 -20.285156 19.65625 -21.039062 20.160156 -21.796875 Z M 16.757812 -26.457031 C 17.136719 -27.089844 18.519531 -26.835938 18.269531 -26.082031 C 17.765625 -25.074219 17.386719 -24.066406 17.007812 -23.054688 C 16.632812 -22.175781 15.246094 -22.679688 15.625 -23.5625 C 16 -24.441406 16.503906 -25.449219 16.757812 -26.457031 Z M 15.496094 -42.460938 C 15.117188 -42.964844 14.742188 -43.59375 14.488281 -43.972656 C 13.984375 -44.980469 15.246094 -45.484375 15.75 -44.726562 C 15.875 -44.476562 17.640625 -42.207031 17.136719 -41.703125 C 16.378906 -40.949219 15.75 -42.082031 15.496094 -42.460938 Z M 15.496094 -42.460938 "/></g></g></g><g fill="#ff1694" fill-opacity="1"><g transform="translate(415.15573, 346.775161)"><g><path d="M 1.890625 -66.398438 C 1.765625 -61.738281 1.261719 -57.074219 2.269531 -52.539062 C 6.171875 -52.664062 9.828125 -53.042969 13.605469 -53.292969 C 13.605469 -57.703125 13.734375 -62.113281 13.734375 -66.523438 C 9.703125 -66.523438 5.796875 -66.523438 1.890625 -66.398438 Z M 2.015625 -45.355469 C 2.140625 -43.339844 2.140625 -41.199219 2.140625 -39.183594 C 6.171875 -39.6875 10.207031 -40.316406 14.238281 -40.820312 C 14.109375 -42.710938 13.984375 -44.476562 13.859375 -46.367188 C 9.953125 -46.113281 5.921875 -45.859375 2.015625 -45.355469 Z M 2.140625 -37.671875 C 2.140625 -34.898438 2.140625 -32.378906 2.140625 -29.609375 C 6.171875 -30.113281 10.207031 -30.488281 14.238281 -30.742188 C 14.238281 -33.640625 14.238281 -36.410156 14.238281 -39.183594 C 10.207031 -38.679688 6.171875 -38.175781 2.140625 -37.671875 Z M 2.140625 -28.097656 C 2.140625 -23.9375 2.140625 -19.78125 2.269531 -15.496094 C 6.300781 -16 10.207031 -16.253906 14.238281 -16.757812 C 14.238281 -20.914062 14.238281 -25.074219 14.238281 -29.230469 C 10.207031 -28.851562 6.171875 -28.601562 2.140625 -28.097656 Z M 4.03125 -0.378906 C 7.683594 -1.132812 11.339844 -1.890625 14.992188 -2.644531 C 14.363281 -6.804688 14.488281 -10.960938 14.238281 -15.117188 C 10.207031 -14.742188 6.300781 -14.363281 2.394531 -13.984375 C 2.644531 -9.449219 1.765625 -4.535156 4.03125 -0.378906 Z M 4.03125 -0.378906 "/></g></g></g><g fill="#ff1694" fill-opacity="1"><g transform="translate(432.038168, 346.775161)"><g><path d="M 18.269531 15.625 C 16.253906 13.984375 16.757812 10.835938 16.378906 8.441406 C 12.472656 8.945312 8.441406 9.324219 4.535156 9.703125 C 4.410156 15.75 6.300781 22.804688 11.96875 26.082031 C 17.511719 28.851562 23.9375 28.222656 29.609375 26.332031 C 35.90625 24.066406 40.570312 18.269531 42.207031 11.71875 C 44.726562 2.269531 43.84375 -7.683594 43.089844 -17.386719 C 42.710938 -23.054688 43.089844 -29.105469 41.578125 -34.648438 C 39.941406 -37.167969 38.050781 -39.4375 35.90625 -41.324219 C 31.371094 -44.851562 25.074219 -46.113281 19.527344 -44.476562 C 7.9375 -42.082031 -0.378906 -29.859375 1.511719 -18.269531 C 2.519531 -9.574219 10.582031 -3.277344 18.773438 -2.140625 C 23.308594 -1.261719 27.84375 -2.394531 31.875 -4.285156 C 31.75 1.007812 31.875 6.675781 29.480469 11.464844 C 27.464844 15.496094 22.175781 16.503906 18.269531 15.625 Z M 27.214844 -21.292969 C 27.089844 -21.167969 26.835938 -21.039062 26.585938 -21.167969 C 26.082031 -21.292969 25.828125 -21.542969 25.578125 -21.796875 C 24.945312 -22.550781 24.066406 -23.308594 23.308594 -23.8125 C 22.679688 -23.054688 22.046875 -22.425781 21.542969 -21.671875 C 21.167969 -21.292969 20.664062 -20.789062 20.285156 -21.039062 C 20.03125 -21.292969 19.90625 -21.542969 20.03125 -21.921875 C 20.03125 -22.175781 20.285156 -22.425781 20.535156 -22.679688 C 21.039062 -23.308594 21.542969 -24.066406 22.175781 -24.820312 C 21.167969 -25.578125 20.160156 -26.585938 19.023438 -27.464844 C 18.773438 -27.71875 18.269531 -28.097656 18.519531 -28.601562 C 18.648438 -28.851562 19.023438 -28.976562 19.402344 -28.851562 C 19.65625 -28.851562 19.90625 -28.601562 20.160156 -28.347656 C 21.039062 -27.59375 22.046875 -26.835938 23.054688 -25.828125 C 23.8125 -26.835938 24.441406 -27.71875 25.074219 -28.601562 C 25.324219 -28.851562 25.449219 -28.976562 25.703125 -29.105469 C 25.953125 -29.355469 26.332031 -29.355469 26.585938 -29.105469 C 26.835938 -28.851562 26.585938 -28.097656 26.332031 -27.71875 C 25.578125 -26.835938 24.945312 -25.828125 24.191406 -25.074219 C 25.074219 -24.316406 25.953125 -23.5625 26.835938 -22.679688 C 27.214844 -22.425781 27.464844 -21.671875 27.214844 -21.292969 Z M 27.214844 -21.292969 "/></g></g></g><g fill="#ff1694" fill-opacity="1"><g transform="translate(477.141987, 346.775161)"><g><path d="M 40.570312 0.378906 C 42.207031 -9.324219 42.460938 -19.277344 41.199219 -29.105469 C 40.316406 -36.160156 36.410156 -43.339844 29.734375 -46.367188 C 24.316406 -49.011719 18.015625 -48.003906 12.222656 -48.128906 C 11.96875 -48.632812 11.589844 -49.390625 11.339844 -49.894531 C 11.214844 -49.515625 4.15625 -47.5 0.882812 -47.246094 C 1.132812 -31.121094 2.394531 -14.992188 3.402344 1.132812 C 7.054688 1.386719 10.835938 1.386719 14.613281 1.386719 C 14.867188 -1.132812 14.992188 -3.78125 14.867188 -6.300781 C 14.238281 -16.253906 13.605469 -26.082031 13.230469 -35.90625 C 16.632812 -36.160156 20.160156 -36.664062 23.5625 -35.90625 C 26.710938 -35.027344 28.347656 -31.875 28.976562 -28.851562 C 30.867188 -19.65625 29.609375 -10.207031 29.105469 -0.882812 C 32.882812 -0.378906 36.664062 0.125 40.570312 0.378906 Z M 40.570312 0.378906 "/></g></g></g></svg>