<svg xmlns="http://www.w3.org/2000/svg" xmlns:xlink="http://www.w3.org/1999/xlink" width="800" zoomAndPan="magnify" viewBox="0 0 600 599.999999" height="800" preserveAspectRatio="xMidYMid meet" version="1.0"><defs><g/><clipPath id="8016cd6460"><path d="M 180 209 L 260 209 L 260 318.75 L 180 318.75 Z M 180 209 " clip-rule="nonzero"/></clipPath><clipPath id="26ec67327f"><path d="M 292 195.75 L 373 195.75 L 373 312 L 292 312 Z M 292 195.75 " clip-rule="nonzero"/></clipPath><clipPath id="3af42c391c"><path d="M 206 310 L 219 310 L 219 318.75 L 206 318.75 Z M 206 310 " clip-rule="nonzero"/></clipPath></defs><g clip-path="url(#8016cd6460)"><path fill="#ffffff" d="M 180.09375 229.207031 L 206.6875 309.1875 L 219.984375 318.257812 L 240.0625 315.496094 L 259.765625 209.59375 L 235.972656 209.59375 L 224.5 299.378906 L 192.148438 211.886719 Z M 180.09375 229.207031 " fill-opacity="1" fill-rule="nonzero"/></g><path fill="#ffffff" d="M 266.65625 232.996094 L 267.167969 268.976562 L 266.65625 311.214844 L 274.683594 310.726562 L 281.910156 311.640625 L 281.910156 254.753906 L 281.132812 232.796875 Z M 266.65625 232.996094 " fill-opacity="1" fill-rule="nonzero"/><path fill="#ffffff" d="M 265.65625 233.265625 L 265.902344 265.699219 L 264.65625 248.355469 Z M 265.65625 233.265625 " fill-opacity="1" fill-rule="nonzero"/><g clip-path="url(#26ec67327f)"><path fill="#ffffff" d="M 292.519531 207.074219 L 309.839844 279.761719 L 319.734375 309.34375 L 334.007812 311.640625 L 346.195312 280.519531 L 372.542969 195.75 L 347.460938 196.753906 C 347.460938 196.753906 329.894531 270.402344 329.894531 269.042969 C 329.894531 267.683594 307.058594 202.792969 307.058594 202.792969 Z M 292.519531 207.074219 " fill-opacity="1" fill-rule="nonzero"/></g><path fill="#ffffff" d="M 351.6875 310.144531 L 351.730469 310.011719 C 351.664062 310.054688 351.640625 310.101562 351.6875 310.144531 Z M 351.6875 310.144531 " fill-opacity="1" fill-rule="nonzero"/><path fill="#ffffff" d="M 407.609375 229.363281 L 382.484375 225.820312 L 351.730469 310.011719 C 352.84375 309.5 367.316406 312.84375 367.316406 312.84375 L 369.296875 299.378906 L 373.433594 284.3125 L 404.207031 283.753906 L 406.761719 314.136719 L 412.523438 317.433594 L 419.90625 317.257812 Z M 378.992188 270.824219 L 386.328125 244.054688 L 398.269531 244.144531 L 400.382812 269.152344 C 394.777344 269.597656 384.707031 270.402344 378.992188 270.824219 Z M 378.992188 270.824219 " fill-opacity="1" fill-rule="nonzero"/><path fill="#ffffff" d="M 386.863281 246.816406 L 382.4375 269.242188 L 380.347656 269.332031 Z M 386.863281 246.816406 " fill-opacity="1" fill-rule="nonzero"/><path fill="#ffffff" d="M 406.695312 314.648438 L 411.945312 317.902344 L 407.03125 316.699219 Z M 406.695312 314.648438 " fill-opacity="1" fill-rule="nonzero"/><g clip-path="url(#3af42c391c)"><path fill="#ffffff" d="M 206.242188 310.523438 L 218.539062 318.75 L 208.957031 315.226562 Z M 206.242188 310.523438 " fill-opacity="1" fill-rule="nonzero"/></g><g fill="#ffffff" fill-opacity="1"><g transform="translate(160.599633, 440.849912)"><g><path d="M 49.679688 -67.105469 C 43.921875 -71.855469 36.433594 -72.863281 29.375 -74.160156 C 22.03125 -74.449219 14.832031 -73.726562 7.632812 -72.71875 C 5.761719 -70.703125 6.480469 -67.96875 6.480469 -65.519531 C 20.878906 -65.375 35.28125 -66.382812 49.679688 -67.105469 Z M 56.734375 -57.742188 C 55.441406 -60.625 53.710938 -63.214844 51.695312 -65.519531 C 36.433594 -64.65625 21.457031 -63.792969 6.335938 -63.792969 C 6.191406 -61.34375 6.046875 -59.039062 5.902344 -56.734375 C 22.753906 -55.871094 39.886719 -56.59375 56.734375 -57.742188 Z M 57.457031 -56.015625 C 47.808594 -55.726562 38.160156 -54.863281 28.511719 -54.574219 C 20.878906 -54.574219 13.246094 -54.863281 5.617188 -55.007812 C 5.328125 -51.695312 5.039062 -48.238281 4.753906 -44.785156 C 23.183594 -45.070312 41.617188 -45.503906 59.902344 -46.367188 C 59.472656 -49.679688 58.609375 -52.847656 57.457031 -56.015625 Z M 60.046875 -44.496094 C 41.617188 -43.777344 23.039062 -43.34375 4.464844 -43.054688 C 4.320312 -40.175781 4.175781 -37.296875 3.886719 -34.414062 C 22.609375 -34.703125 41.328125 -35.855469 60.046875 -36.863281 C 60.046875 -39.457031 60.046875 -42.046875 60.046875 -44.496094 Z M 59.902344 -34.992188 C 41.183594 -34.128906 22.609375 -32.976562 3.886719 -32.6875 C 3.601562 -30.097656 3.601562 -27.214844 3.3125 -24.625 C 22.03125 -25.777344 40.609375 -27.503906 59.183594 -28.800781 C 59.472656 -30.960938 59.761719 -32.976562 59.902344 -34.992188 Z M 58.894531 -26.929688 C 40.320312 -25.777344 21.886719 -24.046875 3.3125 -22.894531 C 3.3125 -20.304688 3.3125 -17.710938 3.3125 -15.121094 C 20.734375 -15.984375 38.160156 -17.136719 55.726562 -18.289062 C 57.167969 -21.023438 58.03125 -24.046875 58.894531 -26.929688 Z M 26.640625 -1.871094 C 30.382812 -1.585938 34.273438 -2.160156 38.015625 -2.734375 C 45.648438 -3.886719 51.121094 -10.078125 54.863281 -16.414062 C 37.726562 -15.40625 20.59375 -14.113281 3.3125 -13.390625 C 3.023438 -10.078125 2.015625 -6.191406 4.894531 -3.742188 C 12.097656 -2.734375 19.441406 -2.449219 26.640625 -1.871094 Z M 26.640625 -1.871094 "/></g></g></g><g fill="#ffffff" fill-opacity="1"><g transform="translate(223.671602, 440.849912)"><g><path d="M 51.40625 -11.808594 C 48.527344 -14.832031 45.359375 -18 42.335938 -21.167969 C 40.03125 -19.152344 38.015625 -16.847656 35.28125 -15.550781 C 32.398438 -14.257812 29.089844 -14.832031 26.0625 -15.550781 C 21.167969 -17.136719 15.40625 -19.871094 14.976562 -25.777344 C 22.464844 -25.199219 30.097656 -25.054688 37.441406 -25.054688 C 41.902344 -24.910156 46.511719 -27.359375 48.238281 -31.390625 C 50.976562 -37.007812 49.390625 -43.632812 47.375 -49.246094 C 44.640625 -55.871094 37.585938 -59.472656 30.816406 -60.335938 C 24.191406 -61.488281 17.136719 -59.472656 12.097656 -55.152344 C 6.191406 -50.257812 2.734375 -42.769531 1.726562 -35.28125 C 1.007812 -27.214844 1.007812 -18 6.769531 -11.375 C 12.671875 -5.183594 21.3125 -1.871094 29.664062 -1.152344 C 38.304688 -0.144531 46.65625 -4.894531 51.40625 -11.808594 Z M 21.742188 -45.359375 C 25.488281 -47.953125 30.671875 -47.230469 34.128906 -44.785156 C 35.425781 -43.054688 35.566406 -40.753906 36.144531 -38.734375 C 29.664062 -38.734375 23.183594 -38.878906 16.847656 -39.3125 C 18.144531 -41.617188 19.585938 -43.921875 21.742188 -45.359375 Z M 21.742188 -45.359375 "/></g></g></g><g fill="#ffffff" fill-opacity="1"><g transform="translate(277.239574, 440.849912)"><g><path d="M 27.503906 -37.296875 C 31.535156 -38.449219 35.855469 -38.449219 40.175781 -38.160156 C 40.753906 -41.039062 40.609375 -44.0625 39.023438 -46.65625 C 35.566406 -53.710938 27.214844 -57.457031 19.585938 -56.734375 C 13.105469 -56.015625 7.921875 -50.832031 5.617188 -44.929688 C 2.304688 -36.71875 6.191406 -26.640625 13.96875 -22.464844 C 17.425781 -20.59375 21.457031 -19.871094 24.910156 -18 C 26.351562 -17.425781 27.503906 -15.265625 26.0625 -13.96875 C 24.191406 -11.375 20.304688 -9.9375 17.425781 -11.664062 C 15.695312 -14.257812 14.542969 -17.136719 12.960938 -20.015625 C 9.070312 -18.144531 5.039062 -16.414062 1.152344 -14.832031 C 3.3125 -8.929688 5.472656 -2.015625 11.664062 1.007812 C 21.457031 5.902344 34.414062 0.863281 39.023438 -8.785156 C 42.191406 -15.695312 39.886719 -24.625 33.550781 -28.800781 C 29.519531 -31.96875 24.046875 -32.398438 19.726562 -34.992188 C 13.105469 -42.335938 28.222656 -46.945312 27.503906 -37.296875 Z M 33.839844 -43.054688 C 34.703125 -42.910156 35.136719 -41.472656 34.128906 -41.328125 C 32.976562 -41.039062 31.96875 -40.753906 30.816406 -40.464844 C 29.808594 -40.175781 29.375 -41.902344 30.382812 -42.046875 C 31.535156 -42.335938 32.832031 -43.054688 33.839844 -43.054688 Z M 29.230469 -45.9375 C 30.097656 -46.511719 31.246094 -47.089844 32.113281 -47.664062 C 33.265625 -48.238281 33.839844 -46.800781 32.976562 -46.222656 C 31.96875 -45.648438 30.960938 -45.070312 30.097656 -44.496094 C 28.945312 -43.921875 28.367188 -45.359375 29.230469 -45.9375 Z M 25.488281 -48.816406 C 25.921875 -49.679688 26.207031 -50.542969 26.929688 -51.40625 C 27.648438 -52.128906 28.800781 -51.695312 28.222656 -50.542969 C 27.792969 -49.679688 27.359375 -48.816406 26.929688 -47.953125 C 26.351562 -47.089844 25.054688 -47.953125 25.488281 -48.816406 Z M 22.753906 -53.136719 C 23.183594 -53.136719 23.617188 -52.847656 23.617188 -52.414062 C 23.617188 -51.40625 23.472656 -50.113281 23.472656 -48.960938 C 23.472656 -47.953125 22.03125 -47.953125 22.03125 -48.960938 C 22.03125 -50.257812 21.457031 -53.136719 22.753906 -53.136719 Z M 7.34375 -10.367188 C 7.054688 -10.078125 6.335938 -10.222656 6.191406 -10.65625 C 5.902344 -10.945312 6.046875 -11.375 6.480469 -11.664062 C 7.921875 -12.382812 9.359375 -13.105469 10.65625 -13.96875 C 11.089844 -14.113281 11.664062 -13.96875 11.808594 -13.679688 C 11.953125 -13.246094 11.953125 -12.816406 11.519531 -12.527344 C 10.078125 -11.664062 8.785156 -10.945312 7.34375 -10.367188 Z M 10.511719 -4.894531 C 10.222656 -4.609375 9.648438 -4.609375 9.359375 -4.894531 C 8.929688 -5.328125 9.070312 -5.617188 9.359375 -6.046875 C 10.511719 -7.488281 11.808594 -9.070312 13.105469 -10.511719 C 13.390625 -10.945312 13.96875 -10.800781 14.257812 -10.511719 C 14.542969 -10.078125 14.542969 -9.648438 14.257812 -9.359375 C 12.960938 -7.921875 11.664062 -6.480469 10.511719 -4.894531 Z M 17.136719 -7.34375 C 16.703125 -6.046875 16.414062 -4.894531 15.984375 -3.601562 C 15.695312 -3.3125 15.40625 -3.023438 14.832031 -3.023438 C 14.542969 -3.3125 14.257812 -3.601562 14.257812 -4.03125 C 14.832031 -5.328125 15.121094 -6.625 15.550781 -7.777344 C 15.695312 -8.0625 15.984375 -8.207031 16.273438 -8.207031 C 16.992188 -8.207031 17.136719 -7.632812 17.136719 -7.34375 Z M 9.359375 -43.054688 C 11.089844 -42.769531 12.816406 -42.480469 14.398438 -42.335938 C 15.40625 -42.335938 15.121094 -40.753906 14.398438 -40.753906 C 12.816406 -40.894531 11.089844 -41.039062 9.359375 -41.328125 C 8.496094 -41.617188 8.207031 -43.054688 9.359375 -43.054688 Z M 9.792969 -36.433594 C 10.945312 -36.71875 11.953125 -37.007812 13.246094 -37.441406 C 13.679688 -37.585938 13.96875 -37.296875 14.257812 -36.863281 C 14.257812 -36.433594 13.96875 -36 13.679688 -35.855469 C 12.527344 -35.425781 11.375 -34.992188 10.222656 -34.703125 C 9.070312 -34.414062 8.785156 -36.144531 9.792969 -36.433594 Z M 15.984375 -30.527344 C 14.832031 -29.808594 13.96875 -29.089844 12.960938 -28.367188 C 11.953125 -27.792969 11.230469 -29.230469 12.097656 -29.808594 C 13.105469 -30.527344 13.96875 -31.246094 15.121094 -31.96875 C 15.984375 -32.398438 16.847656 -30.816406 15.984375 -30.527344 Z M 15.121094 -44.207031 C 14.257812 -45.070312 13.105469 -45.9375 12.238281 -46.65625 C 11.808594 -47.089844 11.953125 -47.664062 12.238281 -47.953125 C 12.527344 -48.238281 12.960938 -47.953125 13.390625 -47.953125 C 14.257812 -47.089844 15.40625 -46.367188 16.273438 -45.359375 C 16.992188 -44.640625 15.839844 -43.632812 15.121094 -44.207031 Z M 20.878906 -2.015625 C 20.878906 -1.585938 20.449219 -1.296875 20.015625 -1.296875 C 19.726562 -1.296875 19.296875 -1.585938 19.296875 -2.015625 C 19.441406 -3.457031 19.585938 -4.894531 19.585938 -6.335938 C 19.585938 -6.769531 20.015625 -7.199219 20.449219 -7.199219 C 20.878906 -7.199219 21.3125 -6.769531 21.167969 -6.335938 C 21.167969 -4.894531 21.023438 -3.457031 20.878906 -2.015625 Z M 32.6875 -6.769531 C 32.257812 -6.769531 32.113281 -6.910156 31.96875 -7.054688 C 31.105469 -7.632812 30.097656 -8.207031 29.230469 -9.070312 C 28.945312 -9.359375 28.800781 -9.648438 28.945312 -10.078125 C 29.230469 -10.367188 29.808594 -10.800781 30.097656 -10.367188 C 31.105469 -9.648438 32.113281 -8.785156 33.265625 -8.0625 C 33.695312 -7.632812 33.265625 -6.769531 32.6875 -6.769531 Z M 35.28125 -12.960938 C 33.984375 -12.960938 32.6875 -13.105469 31.535156 -13.246094 C 30.960938 -13.390625 30.382812 -13.96875 30.960938 -14.542969 C 31.105469 -14.832031 34.128906 -14.6875 35.28125 -14.542969 C 36.433594 -14.542969 36.144531 -12.816406 35.28125 -12.960938 Z M 34.703125 -21.457031 C 34.992188 -21.601562 35.566406 -21.457031 35.855469 -21.167969 C 36 -20.734375 35.855469 -20.160156 35.566406 -20.015625 C 34.128906 -19.296875 32.6875 -18.574219 31.246094 -18 C 30.960938 -17.710938 30.382812 -17.710938 30.097656 -18.289062 C 29.953125 -18.574219 30.097656 -19.152344 30.382812 -19.296875 C 31.824219 -20.015625 33.265625 -20.734375 34.703125 -21.457031 Z M 28.078125 -23.472656 C 28.945312 -24.335938 29.808594 -25.199219 30.671875 -26.0625 C 30.960938 -26.351562 31.535156 -26.351562 31.824219 -26.0625 C 32.113281 -25.632812 32.113281 -25.199219 31.824219 -24.910156 C 31.105469 -24.046875 30.097656 -23.039062 29.230469 -22.464844 C 28.511719 -21.742188 27.503906 -22.894531 28.078125 -23.472656 Z M 26.929688 -1.871094 C 26.640625 -1.585938 26.0625 -1.441406 25.777344 -1.871094 C 25.199219 -4.175781 25.054688 -5.761719 24.769531 -7.34375 C 24.625 -7.921875 24.910156 -8.351562 25.488281 -8.351562 C 25.777344 -8.351562 26.207031 -8.207031 26.351562 -7.777344 C 26.640625 -5.902344 26.929688 -4.175781 27.214844 -2.449219 C 27.214844 -2.160156 26.929688 -2.015625 26.929688 -1.871094 Z M 23.039062 -24.910156 C 23.761719 -26.0625 24.625 -27.503906 25.34375 -28.800781 C 25.777344 -29.664062 27.214844 -28.945312 26.640625 -28.078125 C 25.921875 -26.640625 25.199219 -25.34375 24.480469 -24.046875 C 23.761719 -23.183594 22.464844 -24.046875 23.039062 -24.910156 Z M 19.152344 -30.238281 C 19.585938 -30.960938 21.167969 -30.671875 20.878906 -29.808594 C 20.304688 -28.65625 19.871094 -27.503906 19.441406 -26.351562 C 19.007812 -25.34375 17.425781 -25.921875 17.855469 -26.929688 C 18.289062 -27.9375 18.863281 -29.089844 19.152344 -30.238281 Z M 17.710938 -48.527344 C 17.28125 -49.105469 16.847656 -49.824219 16.558594 -50.257812 C 15.984375 -51.40625 17.425781 -51.984375 18 -51.121094 C 18.144531 -50.832031 20.160156 -48.238281 19.585938 -47.664062 C 18.71875 -46.800781 18 -48.097656 17.710938 -48.527344 Z M 17.710938 -48.527344 "/></g></g></g><g fill="#ffffff" fill-opacity="1"><g transform="translate(318.999555, 440.849912)"><g><path d="M 2.160156 -75.886719 C 2.015625 -70.558594 1.441406 -65.230469 2.59375 -60.046875 C 7.054688 -60.191406 11.230469 -60.625 15.550781 -60.910156 C 15.550781 -65.953125 15.695312 -70.992188 15.695312 -76.03125 C 11.089844 -76.03125 6.625 -76.03125 2.160156 -75.886719 Z M 2.304688 -51.839844 C 2.449219 -49.535156 2.449219 -47.089844 2.449219 -44.785156 C 7.054688 -45.359375 11.664062 -46.078125 16.273438 -46.65625 C 16.128906 -48.816406 15.984375 -50.832031 15.839844 -52.992188 C 11.375 -52.703125 6.769531 -52.414062 2.304688 -51.839844 Z M 2.449219 -43.054688 C 2.449219 -39.886719 2.449219 -37.007812 2.449219 -33.839844 C 7.054688 -34.414062 11.664062 -34.847656 16.273438 -35.136719 C 16.273438 -38.449219 16.273438 -41.617188 16.273438 -44.785156 C 11.664062 -44.207031 7.054688 -43.632812 2.449219 -43.054688 Z M 2.449219 -32.113281 C 2.449219 -27.359375 2.449219 -22.609375 2.59375 -17.710938 C 7.199219 -18.289062 11.664062 -18.574219 16.273438 -19.152344 C 16.273438 -23.902344 16.273438 -28.65625 16.273438 -33.40625 C 11.664062 -32.976562 7.054688 -32.6875 2.449219 -32.113281 Z M 4.609375 -0.433594 C 8.785156 -1.296875 12.960938 -2.160156 17.136719 -3.023438 C 16.414062 -7.777344 16.558594 -12.527344 16.273438 -17.28125 C 11.664062 -16.847656 7.199219 -16.414062 2.734375 -15.984375 C 3.023438 -10.800781 2.015625 -5.183594 4.609375 -0.433594 Z M 4.609375 -0.433594 "/></g></g></g><g fill="#ffffff" fill-opacity="1"><g transform="translate(338.151539, 440.849912)"><g><path d="M 20.878906 17.855469 C 18.574219 15.984375 19.152344 12.382812 18.71875 9.648438 C 14.257812 10.222656 9.648438 10.65625 5.183594 11.089844 C 5.039062 18 7.199219 26.0625 13.679688 29.808594 C 20.015625 32.976562 27.359375 32.257812 33.839844 30.097656 C 41.039062 27.503906 46.367188 20.878906 48.238281 13.390625 C 51.121094 2.59375 50.113281 -8.785156 49.246094 -19.871094 C 48.816406 -26.351562 49.246094 -33.265625 47.519531 -39.601562 C 45.648438 -42.480469 43.488281 -45.070312 41.039062 -47.230469 C 35.855469 -51.265625 28.65625 -52.703125 22.320312 -50.832031 C 9.070312 -48.097656 -0.433594 -34.128906 1.726562 -20.878906 C 2.878906 -10.945312 12.097656 -3.742188 21.457031 -2.449219 C 26.640625 -1.441406 31.824219 -2.734375 36.433594 -4.894531 C 36.289062 1.152344 36.433594 7.632812 33.695312 13.105469 C 31.390625 17.710938 25.34375 18.863281 20.878906 17.855469 Z M 31.105469 -24.335938 C 30.960938 -24.191406 30.671875 -24.046875 30.382812 -24.191406 C 29.808594 -24.335938 29.519531 -24.625 29.230469 -24.910156 C 28.511719 -25.777344 27.503906 -26.640625 26.640625 -27.214844 C 25.921875 -26.351562 25.199219 -25.632812 24.625 -24.769531 C 24.191406 -24.335938 23.617188 -23.761719 23.183594 -24.046875 C 22.894531 -24.335938 22.753906 -24.625 22.894531 -25.054688 C 22.894531 -25.34375 23.183594 -25.632812 23.472656 -25.921875 C 24.046875 -26.640625 24.625 -27.503906 25.34375 -28.367188 C 24.191406 -29.230469 23.039062 -30.382812 21.742188 -31.390625 C 21.457031 -31.679688 20.878906 -32.113281 21.167969 -32.6875 C 21.3125 -32.976562 21.742188 -33.121094 22.175781 -32.976562 C 22.464844 -32.976562 22.753906 -32.6875 23.039062 -32.398438 C 24.046875 -31.535156 25.199219 -30.671875 26.351562 -29.519531 C 27.214844 -30.671875 27.9375 -31.679688 28.65625 -32.6875 C 28.945312 -32.976562 29.089844 -33.121094 29.375 -33.265625 C 29.664062 -33.550781 30.097656 -33.550781 30.382812 -33.265625 C 30.671875 -32.976562 30.382812 -32.113281 30.097656 -31.679688 C 29.230469 -30.671875 28.511719 -29.519531 27.648438 -28.65625 C 28.65625 -27.792969 29.664062 -26.929688 30.671875 -25.921875 C 31.105469 -25.632812 31.390625 -24.769531 31.105469 -24.335938 Z M 31.105469 -24.335938 "/></g></g></g><g fill="#ffffff" fill-opacity="1"><g transform="translate(389.559508, 440.849912)"><g><path d="M 46.367188 0.433594 C 48.238281 -10.65625 48.527344 -22.03125 47.089844 -33.265625 C 46.078125 -41.328125 41.617188 -49.535156 33.984375 -52.992188 C 27.792969 -56.015625 20.59375 -54.863281 13.96875 -55.007812 C 13.679688 -55.585938 13.246094 -56.449219 12.960938 -57.023438 C 12.816406 -56.59375 4.753906 -54.289062 1.007812 -54 C 1.296875 -35.566406 2.734375 -17.136719 3.886719 1.296875 C 8.0625 1.585938 12.382812 1.585938 16.703125 1.585938 C 16.992188 -1.296875 17.136719 -4.320312 16.992188 -7.199219 C 16.273438 -18.574219 15.550781 -29.808594 15.121094 -41.039062 C 19.007812 -41.328125 23.039062 -41.902344 26.929688 -41.039062 C 30.527344 -40.03125 32.398438 -36.433594 33.121094 -32.976562 C 35.28125 -22.464844 33.839844 -11.664062 33.265625 -1.007812 C 37.585938 -0.433594 41.902344 0.144531 46.367188 0.433594 Z M 46.367188 0.433594 "/></g></g></g><g fill="#ff5757" fill-opacity="1"><g transform="translate(220.889581, 379.049946)"><g><path d="M 37.488281 -67.492188 C 36.519531 -67.492188 35.992188 -67.140625 35.992188 -66.4375 C 35.992188 -65.820312 35.550781 -65.644531 34.671875 -65.910156 C 34.144531 -66.085938 33.878906 -66.085938 33.792969 -66.085938 C 33.703125 -66.085938 33.703125 -65.910156 33.878906 -65.558594 C 34.054688 -65.03125 34.230469 -62.566406 34.40625 -58.167969 C 34.582031 -53.765625 34.671875 -49.984375 34.671875 -46.816406 C 34.671875 -44.789062 34.671875 -43.558594 34.582031 -43.117188 C 34.496094 -43.03125 34.40625 -42.941406 34.320312 -42.941406 C 33.703125 -42.941406 32.648438 -44.703125 31.152344 -48.3125 C 29.566406 -51.917969 28.773438 -54.46875 28.773438 -56.054688 C 28.773438 -56.757812 28.773438 -58.078125 28.773438 -58.695312 C 28.070312 -58.695312 26.839844 -58.695312 25.871094 -58.695312 C 24.023438 -58.605469 22.878906 -58.34375 22.527344 -57.8125 C 22.175781 -57.285156 21.910156 -57.285156 21.734375 -57.8125 C 21.558594 -58.167969 21.382812 -58.34375 21.207031 -58.34375 C 20.765625 -58.34375 20.328125 -56.933594 19.800781 -54.117188 C 19.449219 -51.65625 18.566406 -47.605469 17.070312 -41.886719 C 16.542969 -39.863281 15.488281 -35.902344 14.960938 -33.96875 C 14.871094 -35.023438 14.695312 -36.871094 14.609375 -38.367188 C 12.671875 -56.671875 11.617188 -66.175781 11.441406 -66.878906 C 11.265625 -67.492188 10.734375 -67.847656 9.769531 -67.847656 C 9.0625 -67.847656 8.625 -67.671875 8.449219 -67.316406 C 8.097656 -66.964844 7.742188 -66.878906 7.304688 -67.054688 C 6.777344 -67.230469 6.246094 -67.054688 5.71875 -66.527344 C 5.367188 -65.910156 4.75 -65.734375 3.960938 -65.820312 C 3.609375 -65.820312 3.34375 -65.820312 3.167969 -65.644531 C 3.078125 -65.46875 2.992188 -65.292969 2.992188 -65.03125 C 2.992188 -64.941406 2.992188 -64.855469 3.078125 -64.765625 C 3.785156 -56.757812 4.574219 -46.460938 5.457031 -33.792969 C 6.070312 -23.671875 6.6875 -17.863281 7.304688 -16.367188 C 7.832031 -15.222656 8.449219 -12.757812 9.0625 -8.886719 C 9.855469 -4.929688 10.296875 -2.992188 10.296875 -2.992188 C 10.472656 -2.992188 10.558594 -4.664062 10.558594 -8.007812 C 10.558594 -10.910156 10.648438 -12.320312 10.910156 -12.320312 C 11.085938 -12.320312 11.527344 -10.824219 12.230469 -7.832031 C 12.496094 -6.421875 12.757812 -5.457031 13.023438 -5.015625 C 13.289062 -4.574219 13.640625 -4.398438 14.078125 -4.398438 C 14.785156 -4.398438 15.3125 -3.871094 15.574219 -2.816406 C 15.75 -1.761719 16.015625 -1.230469 16.367188 -1.230469 C 16.808594 -1.230469 16.984375 -2.289062 16.984375 -4.488281 C 16.984375 -6.246094 17.070312 -7.128906 17.335938 -7.128906 C 17.335938 -7.128906 17.421875 -7.039062 17.511719 -6.863281 C 17.777344 -6.421875 17.953125 -6.246094 18.128906 -6.246094 C 18.480469 -6.246094 18.917969 -7.480469 19.535156 -10.03125 C 20.152344 -12.582031 21.296875 -18.214844 22.96875 -26.925781 C 24.199219 -33.703125 24.992188 -37.222656 25.34375 -37.574219 C 25.34375 -37.574219 25.429688 -37.574219 25.429688 -37.574219 C 25.785156 -37.574219 26.574219 -35.464844 27.808594 -31.238281 C 29.039062 -27.015625 29.917969 -23.320312 30.445312 -20.238281 C 30.710938 -18.390625 31.152344 -16.71875 31.855469 -15.3125 C 32.558594 -13.902344 33.085938 -12.757812 33.351562 -11.792969 C 34.40625 -8.007812 35.199219 -6.070312 35.726562 -6.070312 C 35.902344 -6.070312 35.992188 -6.335938 35.992188 -6.863281 C 35.992188 -7.390625 35.992188 -7.832031 35.902344 -8.183594 C 35.902344 -8.625 35.902344 -9.152344 35.902344 -9.855469 C 35.902344 -10.734375 35.992188 -11.175781 36.167969 -11.175781 C 36.519531 -11.175781 36.871094 -10.734375 37.222656 -9.855469 C 37.925781 -8.449219 38.542969 -7.832031 39.070312 -7.832031 C 39.773438 -7.832031 40.214844 -7.480469 40.390625 -6.777344 C 40.566406 -6.246094 41.007812 -6.070312 41.710938 -6.160156 C 41.976562 -6.160156 42.238281 -6.335938 42.414062 -6.6875 C 42.589844 -7.304688 42.941406 -15.136719 43.382812 -30.183594 C 43.382812 -32.558594 43.382812 -36.078125 43.382812 -40.742188 C 43.382812 -56.40625 42.855469 -65.734375 41.710938 -68.726562 C 41.535156 -69.253906 41.09375 -69.605469 40.65625 -69.957031 C 40.214844 -70.222656 39.773438 -70.398438 39.335938 -70.398438 C 38.894531 -70.398438 38.71875 -70.222656 38.71875 -69.78125 C 38.71875 -69.429688 38.191406 -69.253906 37.136719 -69.253906 Z M 37.488281 -67.492188 "/></g></g></g><g fill="#ff5757" fill-opacity="1"><g transform="translate(266.031583, 379.049946)"><g><path d="M 8.800781 -54.207031 C 4.574219 -53.328125 2.199219 -52.886719 1.582031 -52.886719 C 1.40625 -52.886719 1.320312 -49.894531 1.320312 -43.824219 C 1.320312 -37.488281 1.40625 -30.710938 1.582031 -23.40625 C 1.761719 -16.105469 1.9375 -12.320312 2.113281 -11.96875 C 2.550781 -10.910156 2.992188 -9.328125 3.34375 -7.214844 C 4.046875 -3.960938 4.664062 -2.375 5.28125 -2.375 C 5.457031 -2.375 5.632812 -2.550781 5.71875 -2.816406 C 6.070312 -3.34375 6.863281 -3.34375 8.007812 -2.902344 C 9.414062 -2.375 13.199219 -2.113281 19.359375 -2.113281 C 20.0625 -2.113281 21.382812 -2.113281 22 -2.113281 C 22.527344 -2.199219 23.582031 -2.199219 24.109375 -2.199219 C 24.023438 -2.816406 23.847656 -3.871094 23.757812 -4.75 C 23.40625 -6.601562 23.144531 -7.566406 22.96875 -7.566406 C 21.734375 -8.097656 21.121094 -8.535156 21.121094 -8.886719 C 21.121094 -9.0625 21.207031 -9.328125 21.472656 -9.679688 C 21.734375 -9.945312 21.910156 -10.121094 21.910156 -10.296875 C 21.910156 -10.472656 21.296875 -10.558594 20.0625 -10.558594 C 18.566406 -10.558594 16.808594 -10.734375 14.785156 -11.175781 C 12.757812 -11.617188 11.617188 -12.054688 11.351562 -12.496094 C 11 -12.9375 10.824219 -13.992188 10.824219 -15.75 C 10.824219 -16.457031 10.824219 -17.777344 10.824219 -18.390625 C 12.582031 -18.390625 15.574219 -18.480469 17.953125 -18.566406 C 22.703125 -18.65625 25.253906 -18.832031 25.605469 -19.09375 C 25.695312 -19.183594 25.695312 -19.359375 25.695312 -19.535156 C 25.695312 -19.800781 25.605469 -20.152344 25.34375 -20.589844 C 24.902344 -21.296875 24.726562 -22.085938 24.726562 -22.96875 C 24.726562 -23.757812 24.464844 -24.289062 23.847656 -24.464844 C 23.320312 -24.640625 23.054688 -25.167969 23.054688 -26.136719 C 23.054688 -26.488281 22.792969 -26.664062 22.175781 -26.75 C 21.558594 -26.839844 20.0625 -26.925781 17.6875 -27.101562 C 15.664062 -27.277344 13.992188 -27.367188 12.757812 -27.367188 C 12.054688 -27.367188 11.703125 -27.367188 11.703125 -27.367188 C 11.703125 -27.367188 11.617188 -27.367188 11.527344 -27.367188 C 11 -27.367188 10.734375 -29.480469 10.734375 -33.703125 C 10.734375 -34.40625 10.734375 -35.726562 10.734375 -36.34375 C 10.824219 -37.925781 10.824219 -41.09375 10.824219 -42.679688 C 11.792969 -42.941406 13.464844 -43.382812 14.785156 -43.734375 C 17.421875 -44.4375 19.359375 -45.40625 20.589844 -46.640625 C 21.824219 -48.046875 22.4375 -48.75 22.4375 -48.75 C 22.4375 -48.75 22.261719 -48.75 21.910156 -48.664062 C 21.648438 -48.664062 21.207031 -48.574219 20.765625 -48.488281 C 20.679688 -48.488281 20.589844 -48.488281 20.503906 -48.398438 C 20.414062 -48.398438 20.328125 -48.398438 20.238281 -48.398438 C 19.535156 -48.398438 19.183594 -48.574219 19.183594 -49.015625 C 19.183594 -49.277344 19.359375 -49.542969 19.800781 -49.804688 C 19.976562 -49.984375 20.0625 -50.335938 20.0625 -50.863281 C 20.0625 -52.445312 19.710938 -53.503906 18.917969 -54.03125 C 18.480469 -54.292969 17.953125 -54.46875 17.246094 -54.46875 C 16.542969 -54.46875 15.925781 -54.292969 15.398438 -53.941406 C 15.046875 -53.765625 12.757812 -53.238281 8.535156 -52.359375 Z M 8.800781 -54.207031 "/></g></g></g><g fill="#ff5757" fill-opacity="1"><g transform="translate(293.750356, 379.049946)"><g><path d="M 15.398438 -9.679688 C 13.726562 -8.007812 12.757812 -7.214844 12.40625 -7.214844 C 12.230469 -7.214844 12.144531 -7.390625 12.144531 -7.742188 C 12.144531 -8.625 13.023438 -9.855469 14.871094 -11.527344 C 16.894531 -13.375 18.128906 -14.253906 18.480469 -14.253906 C 18.65625 -14.253906 18.742188 -14.078125 18.742188 -13.726562 C 18.742188 -13.199219 17.6875 -11.878906 15.488281 -9.769531 Z M 16.632812 -16.808594 C 16.632812 -15.574219 15.75 -14.167969 13.992188 -12.582031 C 13.375 -12.054688 12.320312 -11 11.792969 -10.472656 C 11.792969 -12.054688 11.792969 -14.785156 11.792969 -16.984375 C 11.792969 -21.03125 12.054688 -23.054688 12.582031 -23.054688 C 13.023438 -23.054688 13.816406 -22.175781 15.046875 -20.328125 C 15.925781 -19.09375 16.367188 -17.953125 16.367188 -16.894531 Z M 16.28125 -54.824219 C 16.457031 -54.558594 16.542969 -54.117188 16.542969 -53.414062 C 16.542969 -52.710938 16.542969 -52.09375 16.457031 -51.566406 C 16.28125 -49.277344 15.574219 -47.167969 14.34375 -45.230469 C 13.113281 -43.292969 12.320312 -42.328125 11.96875 -42.328125 C 11.441406 -42.328125 11.175781 -43.382812 11.175781 -45.496094 C 11.175781 -46.902344 11.265625 -48.75 11.441406 -51.039062 C 11.703125 -54.910156 11.96875 -56.847656 12.320312 -56.847656 C 12.9375 -56.847656 13.816406 -56.582031 14.871094 -55.964844 C 15.574219 -55.613281 16.015625 -55.351562 16.191406 -55.085938 Z M 0.878906 -64.589844 C 0.878906 -63.269531 0.96875 -62.300781 1.230469 -61.6875 C 1.230469 -61.597656 1.320312 -52.535156 1.40625 -34.582031 C 1.40625 -7.742188 1.847656 5.632812 2.726562 5.632812 C 2.816406 5.632812 2.816406 5.632812 2.816406 5.632812 C 3.167969 5.367188 3.34375 4.398438 3.34375 2.640625 C 3.34375 0.96875 3.433594 -0.441406 3.695312 -1.671875 C 3.960938 -2.902344 4.222656 -3.519531 4.488281 -3.519531 C 4.574219 -3.519531 4.574219 -3.519531 4.574219 -3.519531 C 4.929688 -3.34375 5.105469 -1.9375 5.105469 0.792969 C 5.105469 2.464844 5.105469 3.609375 5.191406 4.136719 C 5.28125 4.664062 5.542969 5.105469 6.070312 5.367188 C 6.863281 5.71875 7.304688 6.335938 7.390625 7.214844 C 7.480469 8.097656 7.742188 8.535156 8.183594 8.535156 C 8.976562 8.535156 9.414062 6.335938 9.503906 1.9375 C 9.589844 1.054688 9.589844 -0.703125 9.589844 -1.582031 C 10.296875 -1.847656 11.441406 -2.289062 12.320312 -2.640625 C 14.078125 -3.433594 15.839844 -4.664062 17.597656 -6.246094 C 19.359375 -7.832031 20.765625 -9.503906 21.824219 -11.265625 C 22.878906 -13.199219 23.40625 -15.574219 23.40625 -18.390625 C 23.40625 -20.765625 23.144531 -22.703125 22.527344 -24.199219 C 21.910156 -25.695312 20.679688 -27.457031 18.832031 -29.480469 C 18.128906 -30.183594 16.894531 -31.589844 16.28125 -32.296875 C 17.070312 -33.4375 18.390625 -35.375 19.449219 -36.957031 C 21.296875 -39.6875 22.617188 -42.0625 23.320312 -44.175781 C 24.023438 -46.285156 24.375 -48.574219 24.375 -51.125 C 24.375 -59.839844 18.742188 -64.941406 7.480469 -66.351562 C 4.664062 -66.703125 2.726562 -66.878906 1.671875 -66.878906 C 0.96875 -66.878906 0.351562 -66.789062 -0.265625 -66.4375 C -0.527344 -66.175781 -0.617188 -65.292969 -0.617188 -63.796875 Z M 0.878906 -64.589844 "/></g></g></g></svg>